<svg xmlns="http://www.w3.org/2000/svg" width="2.3in" height="2.64in" viewBox="0 0 165.53 190"><defs><style>.cls-1,.cls-2,.cls-6{fill:#fff;}.cls-2{stroke:#fff;stroke-linecap:round;stroke-linejoin:round;stroke-width:18px;}.cls-3,.cls-5{fill:#1d1813;}.cls-4{fill:#13120d;}.cls-4,.cls-5,.cls-6,.cls-8{fill-rule:evenodd;}.cls-7{fill:#bba772;}.cls-8,.cls-9{fill:#d3cdab;}.cls-10{fill:#745a37;}.cls-11{fill:#775f25;}</style></defs><g id="Sheriff_s_Badge_Star" data-name="Sheriff&apos;s Badge Star"><path class="cls-1" d="M118.51,111l40.33-77.85C156,23.77,90.53,20,67.67,20.87c-70.29,5.21-61.54,13-61.54,13L47,110.06a51.15,51.15,0,0,1,71.49.94"/><path class="cls-1" d="M118.51,114.8a3.81,3.81,0,0,1-2.69-1.12A47,47,0,0,0,82.29,99.75h0a47.13,47.13,0,0,0-32.64,13.06,3.81,3.81,0,0,1-6-1L3,36a5,5,0,0,1-.7-4.63C3.38,28,7.6,25.72,16.38,23.58,27,21,44.2,18.81,67.39,17.09h.14c11.28-.42,33.32.24,53.62,2.32a207.81,207.81,0,0,1,26.35,4.07c9.36,2.25,13.84,4.81,15,8.59a3.79,3.79,0,0,1-.27,2.84l-40.33,77.85a3.86,3.86,0,0,1-3.37,2ZM82.29,92.16a54.52,54.52,0,0,1,35.13,12.7l36.84-71.11c-2.54-1.44-10.71-4.55-35.8-7-19.38-1.88-40.09-2.48-50.58-2.09-42.5,3.14-54.39,7.19-57.6,8.88l37.83,70.53A54.66,54.66,0,0,1,82.28,92.16Z"/><path class="cls-1" d="M83.27,186.21,6.19,45.05S5,42,6.66,40.64L83.18,181S159.31,40.51,158.55,40.46s2.3.64.77,3.77c-73.49,137.1-76,142-76,142"/><path class="cls-1" d="M83.27,190a3.79,3.79,0,0,1-3.33-2L2.86,46.87a3.82,3.82,0,0,1-.21-.46c-1-2.55-1.17-6.34,1.53-8.65A3.79,3.79,0,0,1,10,38.82L83.16,173c28.18-52,67.4-124.72,71.53-133.19a4.14,4.14,0,0,1,.15-.63,3.86,3.86,0,0,1,4-2.55,3.79,3.79,0,0,1,2.72,1.43c2.16,2,2.63,4.88,1.21,7.8a.54.54,0,0,0-.07.13C90.39,180.85,86.75,187.74,86.63,188a3.79,3.79,0,0,1-3.33,2Z"/><path class="cls-1" d="M16.77,25.78S72.54,10.54,146.05,25c0,0,.71-5-6.8-8s-67.43-13-114.82,0c-3.76.36-9.41,5.79-7.66,8.8"/><path class="cls-1" d="M16.77,29.57a3.81,3.81,0,0,1-3.28-1.88,7.06,7.06,0,0,1,.13-6.92c1.89-3.68,6.34-7,10.07-7.52,25.72-7,54.05-7.2,73.32-6.09,21.35,1.22,39.07,4.44,43.66,6.3,8.11,3.28,9.56,9.15,9.13,12.11a3.78,3.78,0,0,1-4.49,3.18,330.8,330.8,0,0,0-90.92-5C31.8,25.67,17.91,29.4,17.77,29.44A3.81,3.81,0,0,1,16.77,29.57ZM79.25,14.25a221.46,221.46,0,0,0-44.43,4.14c5.27-.8,11.55-1.58,18.7-2.2a338.43,338.43,0,0,1,71.64,1.6A301.61,301.61,0,0,0,79.25,14.25Z"/><path class="cls-1" d="M149.15,25.85l-2-.7s2-7.39-13.71-11.33S98.23,8.34,53.88,10.36c-6.44.36-32,3.34-36.13,9.42-.12,0-2,1.53-1.84,5.89a6.47,6.47,0,0,1-2.45.43S10.83,14.18,32.89,11c12.64-3,57.48-8.11,103.38,1.55,6.08,1.79,14.19,5.37,13.71,13.59Z"/><path class="cls-1" d="M13.6,29.91a4.18,4.18,0,0,1-1.06-.13,3.8,3.8,0,0,1-2.79-2.86,13.11,13.11,0,0,1,2.34-9.8C15.61,12,22.37,8.69,32.18,7.23,47.38,3.69,92.69-.54,137.05,8.8l.29.07a31,31,0,0,1,10.59,5,14.25,14.25,0,0,1,5.84,12.41,3.79,3.79,0,0,1-4.9,3.41l-.83-.25-.13,0-2-.7a3.61,3.61,0,0,1-2.33-1.81,3.25,3.25,0,0,1-.15-2.67c0-1.23-1.91-4.5-10.92-6.76C118,13.88,99.84,12.06,54.05,14.15a154.48,154.48,0,0,0-18.34,2.5C22.86,19.23,21,21.82,20.88,21.93a3.87,3.87,0,0,1-.72.79,5.39,5.39,0,0,0-.45,2.81,3.8,3.8,0,0,1-2.79,3.8A12.76,12.76,0,0,1,13.6,29.91Zm129.86-5.76ZM17.74,23.58h0Zm0,0Zm0,0Zm0,0h0Zm.57,0a3.55,3.55,0,0,1-.57,0A3.45,3.45,0,0,0,18.35,23.53Z"/><path class="cls-1" d="M83.39,6.79c4.57-.12,10,.8,13.56,3.35,1.59,1.13,3.38,2.82,2.41,5.4-.75,2-3,3.42-5.07,4.3-6.63,2.77-16.75,2.39-22.23-1.12C70.85,18,68.9,16.2,69,14.09c0-1.36,1.46-3.1,2-3.61,2.45-2.06,7.77-3.57,12.37-3.69M79.78,20.1c.58.06,1.19-.11,1.55,0a24.37,24.37,0,0,1-.09-5.41c.28.23,1.1-.07,1.37.17,0,1.78,0,3.57-.08,5.24A7.51,7.51,0,0,0,84.07,20,80,80,0,0,1,84,8.51a3.23,3.23,0,0,0-1.55,0,31.48,31.48,0,0,1,.17,4.2c-.68-.06-.94.16-1.45,0a24.48,24.48,0,0,1,.08-4.2c-.59,0-.93-.16-1.55-.09a105.57,105.57,0,0,1,.09,11.68m5.15-5.84A41.49,41.49,0,0,1,84.85,20a4.12,4.12,0,0,0,1.63,0,17.12,17.12,0,0,1-.17-5c.7-.16.82.26,1.28.34a16.78,16.78,0,0,1,0-2.66c-.51,0-.62.47-1.28.34a14.21,14.21,0,0,1-.09-2.57,3,3,0,0,1,2.15.43A21.28,21.28,0,0,0,88,8.51c-1.06-.1-2.08,0-3.34-.09a17.39,17.39,0,0,1,.17,5.15c-.18-.11-.06-.52-.26-.6-.48.25-.47.47-.6,1,.56,0,.63.16.94.26M74.37,9.71a67.5,67.5,0,0,1,.09,9.18c.26.18.81.05,1.2.09a44.84,44.84,0,0,1-.17-6c.51,1.66.56,3.79,1.29,5.24a35.56,35.56,0,0,1,1.11-5.16c0,2.08,0,3.53-.17,5.93h1.2a74.84,74.84,0,0,1-.08-9.36c-.42,0-1-.09-1.29.09-.32,1.37-.49,2.88-.86,4.2-.33-1.41-.62-2.86-.94-4.29-.45,0-1.07-.09-1.38.09M89.22,19a2.7,2.7,0,0,0,1.12-.17,32.94,32.94,0,0,1-.17-5.76c.51,1.61.57,3.67,1.2,5.16a49.14,49.14,0,0,1,1.12-5.33,49.52,49.52,0,0,1-.17,6,2,2,0,0,0,1.2,0c-.11-3.06-.26-6.4-.09-9.27H92.14a33.91,33.91,0,0,1-.85,4.29c-.26-1.46-.65-2.79-.86-4.29H89.14c.13,3.69.16,6.72.08,9.36"/><path class="cls-1" d="M84.21,25.48c-5.3,0-10.53-1.21-14.2-3.56-1.17-.75-5-3.54-4.84-8,.1-3,2.49-5.6,3.4-6.38C72.1,4.6,78.67,3.12,83.29,3h0C86.24,2.92,93.7,3.16,99.15,7c2.2,1.57,5.61,4.93,3.76,9.85-1.29,3.4-4.6,5.38-7.15,6.45A30.5,30.5,0,0,1,84.21,25.48Z"/><path class="cls-1" d="M102.65,14.26c0,5.79-8.26,10.47-18.44,10.47S65.77,20.05,65.77,14.26,74,3.8,84.21,3.8s18.44,4.68,18.44,10.46"/><path class="cls-1" d="M84.21,28.53C71.74,28.53,62,22.26,62,14.26S71.74,0,84.21,0s22.23,6.27,22.23,14.26S96.68,28.53,84.21,28.53Zm0-20.94a23.38,23.38,0,0,0-11.16,2.57c-2.18,1.24-3.48,2.77-3.48,4.1,0,2.73,5.7,6.68,14.64,6.68a23.38,23.38,0,0,0,11.16-2.57c2.18-1.24,3.48-2.77,3.48-4.11C98.85,11.54,93.15,7.59,84.21,7.59Z"/><path class="cls-1" d="M79.65,8.43c.61-.07,1,.13,1.55.09a23.59,23.59,0,0,0-.09,4.21c.51.16.77-.07,1.46,0a33.41,33.41,0,0,0-.17-4.21,3.19,3.19,0,0,1,1.54,0A78.55,78.55,0,0,0,84,20a7.57,7.57,0,0,1-1.55.09c.11-1.67.1-3.46.09-5.24-.28-.24-1.1.07-1.37-.17a24.38,24.38,0,0,0,.08,5.41c-.36-.11-1,.06-1.54,0a110.7,110.7,0,0,0-.09-11.68"/><path class="cls-1" d="M80,23.92a6,6,0,0,1-.71,0A3.8,3.8,0,0,1,75.94,20a107.79,107.79,0,0,0-.07-11.24,3.78,3.78,0,0,1,3.38-4.1A6.16,6.16,0,0,1,81,4.72h0a4,4,0,0,1,.69,0,7.24,7.24,0,0,1,3.09.07,3.8,3.8,0,0,1,2.88,3.94,76.1,76.1,0,0,0,.09,11,3.8,3.8,0,0,1-3.13,4,11.55,11.55,0,0,1-2.34.14,3.73,3.73,0,0,1-.47,0,4,4,0,0,1-1,0C80.64,23.9,80.36,23.92,80,23.92Zm.18-.17Z"/><path class="cls-1" d="M75.7,9.63c.32,1.43.61,2.88,1,4.3.36-1.33.54-2.84.85-4.21.29-.18.87-.05,1.29-.09A73,73,0,0,0,78.88,19h-1.2c.12-2.39.13-3.85.17-5.92a35.41,35.41,0,0,0-1.12,5.15C76,16.77,76,14.64,75.45,13a44.84,44.84,0,0,0,.17,6c-.4,0-1,.09-1.21-.09a65.86,65.86,0,0,0-.08-9.18c.31-.18.93,0,1.37-.09"/><path class="cls-1" d="M74.89,22.79a4.52,4.52,0,0,1-2.6-.74,3.8,3.8,0,0,1-1.67-3.31,56.18,56.18,0,0,0-.06-8.58,3.78,3.78,0,0,1,1.88-3.73,5.1,5.1,0,0,1,2.9-.59h.12A3.87,3.87,0,0,1,76.73,6a5.8,5.8,0,0,1,1.74-.14h.09a3.79,3.79,0,0,1,4,3.93,68.22,68.22,0,0,0,.07,8.8,3.8,3.8,0,0,1-3.77,4.21h-1.2a3.57,3.57,0,0,1-1-.15,3.7,3.7,0,0,1-1.24.14h-.52Zm.37,0h0ZM78.48,5.85h0Zm-3.1,0h0Z"/><path class="cls-1" d="M89.09,9.63h1.29c.22,1.5.61,2.83.86,4.3a34.37,34.37,0,0,0,.86-4.3h1.29c-.18,2.87,0,6.21.08,9.27a2,2,0,0,1-1.2,0,49.42,49.42,0,0,0,.17-6,49,49,0,0,0-1.11,5.32c-.63-1.49-.7-3.55-1.21-5.15a32.88,32.88,0,0,0,.18,5.75,2.7,2.7,0,0,1-1.12.17c.08-2.64,0-5.67-.09-9.36"/><path class="cls-1" d="M92.8,22.79a5.16,5.16,0,0,1-1.64-.25,5.65,5.65,0,0,1-1.5.23h-.23a3.8,3.8,0,0,1-4.05-3.9c.08-2.5.05-5.4-.08-9.11a3.79,3.79,0,0,1,3.79-3.93h1.29a3.49,3.49,0,0,1,.86.1,3.49,3.49,0,0,1,.86-.1h1.29a3.8,3.8,0,0,1,3.79,4c-.15,2.42-.05,5.27,0,8l0,.86a3.8,3.8,0,0,1-2.77,3.79A6.56,6.56,0,0,1,92.8,22.79Z"/><path class="cls-1" d="M84.52,5.27h.54a31.7,31.7,0,0,1,6.85.91A15.21,15.21,0,0,1,99,9.72a6.41,6.41,0,0,1,2.14,4.46c0,1.71-.78,2.67-1.46,3.87-5,5.77-18.68,6.6-26.78,2.83-2.71-1.26-5.46-3.43-5.5-6.61a6.82,6.82,0,0,1,2.49-4.9c3.79-3.27,9.77-4.12,14.66-4.1M71,10.49c-.6.51-2,2.25-2.06,3.61C68.85,16.21,70.8,18,72,18.73c5.48,3.51,15.61,3.89,22.24,1.12,2.09-.87,4.31-2.31,5.06-4.29,1-2.59-.82-4.28-2.4-5.41-3.58-2.55-9-3.47-13.57-3.35S73.42,8.43,71,10.49"/><path class="cls-1" d="M84.49,27a32.16,32.16,0,0,1-13.22-2.64c-4.91-2.29-7.64-5.84-7.69-10a10.48,10.48,0,0,1,3.8-7.81c4.8-4.15,11.84-5,17-5h.74a35.57,35.57,0,0,1,7.71,1A18.59,18.59,0,0,1,101.59,7a10.05,10.05,0,0,1,3.32,7.2,9.53,9.53,0,0,1-1.67,5.26l-.29.49a4,4,0,0,1-.42.6C98.72,24.93,91.59,27,84.49,27ZM72.77,14.29a4.21,4.21,0,0,0,1.28,1.24c4.35,2.79,13.1,3.17,18.73.82,1.89-.79,2.82-1.71,3-2.13v0a4.54,4.54,0,0,0-1.06-.94c-2.46-1.75-6.78-2.77-11.27-2.65-4.25.12-8.48,1.53-10,2.78A4.88,4.88,0,0,0,72.77,14.29Zm-.09.21Zm0-.36Z"/><path class="cls-1" d="M84.63,8.43c1.26.07,2.28,0,3.35.09a19.26,19.26,0,0,1,.34,2.4,3,3,0,0,0-2.15-.43,16.48,16.48,0,0,0,.09,2.58c.66.12.77-.32,1.29-.34a14.69,14.69,0,0,0,0,2.66c-.46-.09-.58-.51-1.29-.35a17.84,17.84,0,0,0,.17,5,4.12,4.12,0,0,1-1.63,0c.26-2.21.27-10.29-.17-11.59"/><path class="cls-1" d="M85.52,23.9a6.34,6.34,0,0,1-1.63-.2A3.79,3.79,0,0,1,81,19.59,70.48,70.48,0,0,0,81,9.48a3.79,3.79,0,0,1,3.85-4.84c.48,0,.93,0,1.41,0,.65,0,1.33,0,2.07.07a3.79,3.79,0,0,1,3.44,3.33c0,.17.06.38.11.62a12.39,12.39,0,0,1,.26,2.18,3.79,3.79,0,0,1-.82,2.4l0,.2c0,.11,0,.35,0,.53,0,.39,0,.89,0,1.47A3.77,3.77,0,0,1,90,18.27a10.08,10.08,0,0,0,.14,1,3.81,3.81,0,0,1-.71,3,3.77,3.77,0,0,1-2.66,1.48h-.07A8.06,8.06,0,0,1,85.52,23.9Zm5.73-10.35ZM81,9.54l0,.12A.56.56,0,0,1,81,9.54Z"/><path class="cls-1" d="M81.15,25.77c2.55,0,4.64,0,6.95.09.32,1.65,1.13,3.27,1.38,4.72-1.65-.91-5.41-1.71-7.13-.26-.86,1.18-.73,3.32-.68,5.75,0,2.09-.1,4,.68,5.24,1.8,1.5,5.71.6,7.56-.17-.45,1.21-.85,2.47-1.21,3.77-1.24-2-4-.27-4.8,1H81.15c-1.3-1.37-2.64-2.68-4-4v-9a13.54,13.54,0,0,1,0-2.92c.15-.53,1.3-1.47,1.8-2,.84-.84,1.5-1.42,2.15-2.15"/><path class="cls-1" d="M83.9,49.66H81.15a3.76,3.76,0,0,1-2.75-1.18c-.72-.75-1.44-1.49-2.21-2.26-.58-.58-1.15-1.16-1.72-1.75a3.8,3.8,0,0,1-1.07-2.64v-9c0-.18,0-.46,0-.74a9.36,9.36,0,0,1,.17-3.2A7.52,7.52,0,0,1,76,25.55l.34-.32.88-.86c.44-.42.79-.76,1.12-1.12A3.8,3.8,0,0,1,81.2,22c.87,0,1.68,0,2.47,0,1.54,0,3,0,4.59.07a3.8,3.8,0,0,1,3.57,3.08,15.62,15.62,0,0,0,.57,1.91,16.87,16.87,0,0,1,.82,2.9,3.8,3.8,0,0,1-5.57,3.95,6.57,6.57,0,0,0-2.21-.57c0,.63,0,1.42,0,2V36c0,.33,0,.66,0,1s0,.89,0,1.33a9.93,9.93,0,0,0,3-.68,3.79,3.79,0,0,1,5,4.82c-.4,1.08-.77,2.24-1.09,3.45a3.79,3.79,0,0,1-5.51,2.32A3.8,3.8,0,0,1,83.9,49.66Zm.67-11.4Z"/><path class="cls-1" d="M74.54,25.94c.28.58-.2,1.49-.26,2.15a32.11,32.11,0,0,0,.17,3.69c.09,1.88.17,3.95.26,5.92.15,3.21-.1,5.75.77,8.24-1.75,0-3.74.13-5.32.18.64-2.75.34-6.45.17-10s-.13-7.08-.94-10C71,26,73.33,26,74.54,25.94"/><path class="cls-1" d="M70.16,49.91a3.81,3.81,0,0,1-3.7-4.65,32.36,32.36,0,0,0,.15-7.64c0-.46,0-.92-.07-1.37,0-.71-.06-1.41-.08-2.09a32,32,0,0,0-.72-7,3.79,3.79,0,0,1,3.36-4.82c1.79-.14,4.38-.17,5.4-.18a3.77,3.77,0,0,1,3.44,2.11,5.58,5.58,0,0,1,.17,4.08,1.21,1.21,0,0,0,0,.18,14.11,14.11,0,0,0,.08,1.61c0,.47.08,1,.11,1.48l.09,2.23c0,1.22.11,2.47.16,3.69,0,.88.06,1.68.07,2.46a15.41,15.41,0,0,0,.5,4.71,3.79,3.79,0,0,1-3.59,5h-.25c-1,0-2.16,0-3.26.1l-1.69.07Zm7.9-21.49Z"/><path class="cls-1" d="M97.2,26.2c-.88,2.71-.69,6.27-.86,10s-.6,7,.18,10c-1.5-.11-3.44-.07-5.33-.26.9-2.67.82-6.58,1-9.87.14-3.52.5-6.94-.17-9.87v-.26c2.07.12,3.27.17,5.23.26"/><path class="cls-1" d="M96.52,50h-.3c-.56-.05-1.25-.07-2-.09-1,0-2.22-.06-3.41-.18a3.8,3.8,0,0,1-3.24-5,28.29,28.29,0,0,0,.7-6.93c0-.64,0-1.27.06-1.88s.06-1.35.09-2a27.23,27.23,0,0,0-.17-6.87,3.47,3.47,0,0,1-.1-.85v-.26a3.8,3.8,0,0,1,4-3.79c1.61.1,2.68.15,4,.21l1.18.05a3.79,3.79,0,0,1,3.43,5,24.39,24.39,0,0,0-.59,6.17c0,.9,0,1.84-.09,2.79,0,.71-.07,1.42-.11,2.12a23.56,23.56,0,0,0,.17,6.81A3.79,3.79,0,0,1,96.52,50Z"/><path class="cls-1" d="M65.52,26.29a7.23,7.23,0,0,1,1,2.06,7.53,7.53,0,0,1,.78,2.14c-2.32-1-8.88-1.13-7.56,2.49.63,1.7,3.31,1.1,5.33,1.63.92.91,2,1.71,2.91,2.58-.23,2,.71,3.52.35,5.15-.15.67-1.17,1.5-1.63,2.06-.63.76-1.17,1.41-1.63,2.06-2.94.14-5.21.46-7.82.6-.62-1.52-1.32-3-1.88-4.55a13.31,13.31,0,0,0,4.72.6c1.41-.13,2.39-.18,3.17-.86.75-1.46.53-3.39-.77-4-1.14-.49-3.06-.09-4.29-.6a9.71,9.71,0,0,1-1.46-1.28c-.56-.48-1.24-.73-1.46-1.21a7,7,0,0,1-.17-2.06A7.59,7.59,0,0,1,55,31c.14-.67,1.11-1.55,1.63-2.15s1.2-1.32,1.71-2c2.51-.21,4.94-.37,7.21-.6"/><path class="cls-1" d="M57.28,50.86a3.79,3.79,0,0,1-3.51-2.37c-.22-.54-.45-1.07-.68-1.59-.43-1-.87-2-1.27-3.11A3.81,3.81,0,0,1,52.57,40,3.87,3.87,0,0,1,53.88,39a5.41,5.41,0,0,1-2-2.25,6.61,6.61,0,0,1-.49-2.94c0-.15,0-.33,0-.4s0-.2-.05-.32a7.43,7.43,0,0,1,0-2.91,7.51,7.51,0,0,1,2.14-3.46l.32-.35c.25-.3.51-.58.76-.86s.62-.69.85-1A3.79,3.79,0,0,1,58,23.1l2.31-.18c1.7-.13,3.3-.25,4.82-.41a3.75,3.75,0,0,1,3.21,1.24,8.46,8.46,0,0,1,1.55,2.72c0,.13.1.26.16.39a3.52,3.52,0,0,0,.18.4,8.77,8.77,0,0,1,.88,2.93,3.79,3.79,0,0,1-1.51,3.34l1,.83a3.77,3.77,0,0,1,1.23,3.27A5.62,5.62,0,0,0,72,39.12a9.58,9.58,0,0,1,.12,4A7,7,0,0,1,70,46.5l-.3.32-.06.08c-.56.67-1,1.24-1.4,1.76a3.8,3.8,0,0,1-2.92,1.59c-1.51.07-2.86.2-4.17.32s-2.35.21-3.61.28Zm3.94-9h0Z"/><path class="cls-1" d="M104.76,26.63c2.64.39,5.06.47,7.72.77-.84,1.62-.33,3.71.09,5.93.25,1.3.54,2.62.77,3.86.76,4,.9,7.7,2.32,10.56a52.42,52.42,0,0,1-5.92-.52,7.68,7.68,0,0,0,.08-4.72,9.61,9.61,0,0,0-2.91-.34c-.81-.08-2.26-.52-2.75-.26s-1,2.43-1,3.09a14.24,14.24,0,0,1,.08,1.63c-1.74-.17-3.57-.26-5.23-.51,2.18-4,3.71-9,5.49-13.74.75-2,1.8-3.33,1.29-5.75m.6,11.67a13.26,13.26,0,0,0,3.78.43c-.18-2.85-.8-5.87-1.12-8.67-.71,2.93-1.9,5.37-2.66,8.24"/><path class="cls-1" d="M115.42,51.55a38.58,38.58,0,0,1-4.54-.37L109.36,51a3.8,3.8,0,0,1-2.82-1.73,3.75,3.75,0,0,1-.24-.44,3.78,3.78,0,0,1-3.46,1.57c-.56-.06-1.13-.1-1.69-.15-1.23-.1-2.5-.2-3.74-.39a3.8,3.8,0,0,1-2.76-5.58A67.3,67.3,0,0,0,98.49,35c.46-1.3.94-2.63,1.43-3.94.2-.53.41-1,.6-1.42.57-1.28.66-1.56.52-2.2a3.8,3.8,0,0,1,4.27-4.54c1.44.21,2.83.33,4.3.45,1.06.09,2.15.18,3.3.31a3.79,3.79,0,0,1,2.94,5.53,10.79,10.79,0,0,0,.33,2.85l.12.61c.12.64.25,1.29.38,1.92s.27,1.31.39,2c.23,1.22.41,2.39.57,3.51a22.26,22.26,0,0,0,1.42,6.06,3.79,3.79,0,0,1-3.33,5.48Z"/><path class="cls-1" d="M126.14,29.29c1.2,3.89,2.37,7.81,3.43,11.85.38-3.88,1.64-7.31,1.37-10.91,1.56.37,3.21.63,4.81.95C134.28,34,134,37.7,133.43,41s-1.22,6.38-1.8,9.78c-1.1,0-2.68-.56-3.78-.6-1.34-4.83-2.87-9.49-4-14.51-.4,4.58-2.25,8.71-1.81,13.31-1.65-.24-3.19-.58-4.8-.86,1.18-2.61,1.54-6.12,2.23-9.79.64-3.39,1.72-6.31,1.2-9.7a.47.47,0,0,0,.09-.25c1.88.23,3.5.73,5.41.94"/><path class="cls-1" d="M131.63,54.55h-.07a14.79,14.79,0,0,1-2.67-.39c-.39-.08-1-.21-1.19-.22a3.78,3.78,0,0,1-3.24-2.09,3.81,3.81,0,0,1-3,.86c-1.08-.16-2.09-.35-3.07-.54l-1.83-.34a3.8,3.8,0,0,1-2.82-5.3,28.73,28.73,0,0,0,1.49-6.25c.14-.88.3-1.77.47-2.68s.36-1.73.54-2.54a15.59,15.59,0,0,0,.64-5.88,3.94,3.94,0,0,1,4.31-4.6c1,.13,2,.32,2.88.51s1.66.34,2.48.43a3.78,3.78,0,0,1,2.54,1.4,3.75,3.75,0,0,1,2.71-.38c.94.22,1.95.41,3,.6l1.66.31a3.81,3.81,0,0,1,2.65,5.46,21.83,21.83,0,0,0-1.56,6.3c-.13.8-.25,1.62-.4,2.44-.21,1.14-.43,2.26-.64,3.39-.39,2.05-.79,4.17-1.16,6.35A3.8,3.8,0,0,1,131.63,54.55Zm-14.7-26.11Z"/><path class="cls-1" d="M24.15,53.67c-1.56.45-3,1-4.64,1.37-.12-3.59-1.34-6.59-2.23-9.61-1.05-3.59-1.72-7-3.35-9.7,1.78-.43,3.45-1,5.15-1.46,2.39,2.54,4.6,5.24,6.78,8,.16-3.63.88-6.75,1.2-10.3,1.86-.49,3.66-1,5.5-1.54,0,3.59,1.28,6.55,2.23,9.78,1,3.54,1.73,6.85,3.26,9.53-1.71.46-3.39,1-5.06,1.46C32.79,46,30.65,42.64,29.9,38c-.53,4.52-1.2,9.24-1.63,13.14-3.09-3.21-5.72-6.88-8.59-10.31,1.79,4,2.17,9.4,4.47,12.88"/><path class="cls-1" d="M19.51,58.84a3.79,3.79,0,0,1-3.79-3.67,24.86,24.86,0,0,0-1.47-6.68c-.21-.67-.42-1.33-.61-2-.25-.83-.47-1.65-.69-2.45a26.74,26.74,0,0,0-2.28-6.38A3.79,3.79,0,0,1,13,32c1.29-.31,2.54-.68,3.85-1.08L18,30.63a3.77,3.77,0,0,1,3.84,1c.44.46.87.93,1.29,1.39.06-.48.11-1,.15-1.46a3.81,3.81,0,0,1,2.81-3.32c1.08-.28,2.17-.6,3.23-.9.74-.21,1.48-.43,2.22-.63a3.79,3.79,0,0,1,4.81,3.61,23,23,0,0,0,1.44,6.69c.22.68.44,1.37.64,2.07s.46,1.61.68,2.39a28.21,28.21,0,0,0,2.24,6.33A3.79,3.79,0,0,1,39,53.39c-1.7.45-3.38,1-4.94,1.42a3.82,3.82,0,0,1-3.31-.54l-.21-.16a3.57,3.57,0,0,1-1.09.58,3.79,3.79,0,0,1-1.73.17,1.12,1.12,0,0,1-.05.13,3.77,3.77,0,0,1-2.51,2.33c-.57.16-1.13.34-1.69.51-1,.31-2,.62-3.07.9A4.13,4.13,0,0,1,19.51,58.84Z"/><path class="cls-1" d="M87.24,52.13c3.12.2,5.11.23,8.5.25.39,1.1.73,2.25,1,3.44-1.51-.86-4-.91-5.92-.78a18.16,18.16,0,0,0-.09,3.27,4.88,4.88,0,0,0,3.61-.26c-.11,1.33-.05,2.58-.09,3.78a8.18,8.18,0,0,0-3.52-.69A14.05,14.05,0,0,0,91,67.75c-1.29,0-3.07,0-4.21-.09.64-1.66.49-4.11.61-6.61a37.61,37.61,0,0,0-.18-8.67Z"/><path class="cls-1" d="M90,71.56c-1.14,0-2.49,0-3.5-.11a3.8,3.8,0,0,1-3.25-5.14,15,15,0,0,0,.3-3.5c0-.63,0-1.28.06-1.93l0-.67a32.6,32.6,0,0,0-.13-7.06,3.3,3.3,0,0,1-.08-.77v-.25a3.8,3.8,0,0,1,4-3.79c3,.19,4.79.22,8.28.25a3.79,3.79,0,0,1,3.55,2.52c.4,1.14.77,2.37,1.13,3.77a3.79,3.79,0,0,1-2.35,4.49c0,.38,0,.76,0,1.15s0,1,0,1.42a3.8,3.8,0,0,1-3.68,3.68,5.07,5.07,0,0,0,.21.89,3.8,3.8,0,0,1-3.52,5Z"/><path class="cls-1" d="M104.93,53.07c-.79,2,.3,5.25.77,7.64.62,3.12,1,5.84,2,8.07-1.73,0-3.28-.19-4.55-.26a10.16,10.16,0,0,0,.08-3.52c-1-.65-3-.28-4.38-.6-.82.78-.82,2.35-.77,3.61a20.62,20.62,0,0,1-3.86-.17c1.52-3,2.47-6.72,3.69-10.31.58-1.7,1.4-3,1-4.89,1.71.09,4.08.27,6,.43m-5.32,8.59a7.8,7.8,0,0,0,2.92.17c-.41-2.17-.61-4.55-1.12-6.61-.36,2.32-1.5,4.33-1.8,6.44"/><path class="cls-1" d="M107.68,72.58h-.08c-1.2,0-2.29-.11-3.26-.18l-1.4-.09a3.81,3.81,0,0,1-2.63-1.24,3.81,3.81,0,0,1-1.51.66,13.44,13.44,0,0,1-3.85,0l-1-.09a3.76,3.76,0,0,1-3-1.91,3.81,3.81,0,0,1-.09-3.59,45.79,45.79,0,0,0,2.47-6.67c.32-1,.66-2.09,1-3.14.16-.47.32-.89.47-1.26.43-1.09.49-1.33.42-1.69a3.81,3.81,0,0,1,3.94-4.51c1.56.09,3.84.25,6.11.44a3.79,3.79,0,0,1,3.23,5.15,14.61,14.61,0,0,0,.58,3.84c.13.56.27,1.14.38,1.7s.25,1.34.37,2a23.24,23.24,0,0,0,1.33,5.23,3.81,3.81,0,0,1-3.45,5.39Zm.77-18.09Zm0-.07Z"/><path class="cls-1" d="M59.43,53.24c-.66,2.89.09,6.55.34,9.62a6.45,6.45,0,0,0,.52,3c2-.23,4.16-.36,5.41-1.37.13,1-.52,2.67-.78,3.86-3.18.1-5.59.59-8.41.69.47-2.48,0-4.89-.26-7.81a37.35,37.35,0,0,0-1-7.64c1.39-.14,2.79-.25,4.21-.35"/><path class="cls-1" d="M56.51,72.83a3.79,3.79,0,0,1-2.88-1.32,3.83,3.83,0,0,1-.85-3.18,16.32,16.32,0,0,0-.1-4.69c-.07-.68-.15-1.37-.21-2.1l-.08-1a30.57,30.57,0,0,0-.78-5.75,3.79,3.79,0,0,1,3.25-4.94c1.27-.13,2.64-.24,4.3-.35a3.79,3.79,0,0,1,4,4.63,19.94,19.94,0,0,0,.17,6l.15,1.34a3.79,3.79,0,0,1,6,2.56,10.45,10.45,0,0,1-.57,4.21c-.11.36-.2.71-.26,1a3.8,3.8,0,0,1-3.59,3c-1.5,0-2.81.19-4.2.34s-2.7.29-4.2.34Zm7.14-8.64Z"/><path class="cls-1" d="M72.2,52.41C71.38,55.25,71.92,59,72,62a6.35,6.35,0,0,0,.34,3c2-.12,4.18-.12,5.48-1.07.08,1-.67,2.64-1,3.82-3.19-.08-5.62.27-8.44.2.61-2.44.26-4.87.19-7.81a38.32,38.32,0,0,0-.6-7.69c1.39,0,2.8-.08,4.22-.1"/><path class="cls-1" d="M69.1,71.82h-.8a3.8,3.8,0,0,1-3.59-4.72,16.67,16.67,0,0,0,.16-4.69c0-.67-.07-1.37-.09-2.1l0-1a31.41,31.41,0,0,0-.45-5.81,3.79,3.79,0,0,1,3.52-4.75c1.3,0,2.71-.08,4.32-.11a3.81,3.81,0,0,1,3.7,4.86,20,20,0,0,0-.18,6c0,.44.06.89.08,1.34a3.79,3.79,0,0,1,5.85,2.9,10.24,10.24,0,0,1-.81,4.17c-.12.36-.24.69-.3.93a3.81,3.81,0,0,1-3.76,2.79c-1.5,0-2.82,0-4.21.1C71.43,71.76,70.3,71.82,69.1,71.82Zm6.69-8.25h0Z"/><path class="cls-1" d="M115.57,54.1q1.11,3.78,2.15,7.64c1.31-2.3,2.7-4.51,4.12-6.7,1.49.14,2.85.42,4.3.61-1,1.93-1,4.31-1.46,7.21A33.44,33.44,0,0,0,123.9,71c-1.27-.25-2.67-.35-4-.6,1-2.6,1.07-6.94,1.89-10-1.65,2.58-3.5,5.71-5.23,8.5a29.53,29.53,0,0,1-1.46-4.81c-.46-1.66-.94-3.3-1.29-5-.26,3.57-1.41,7.22-1,10.39-1-.29-2.57-.25-3.69-.6a26.43,26.43,0,0,0,1.37-6.53c.41-3,1-6.14.77-8.58,0-.14.08-.15.09-.26,1.36.24,2.82.38,4.2.6"/><path class="cls-1" d="M123.9,74.81a4.39,4.39,0,0,1-.72-.07c-.53-.1-1.13-.18-1.76-.27s-1.44-.19-2.18-.33a3.78,3.78,0,0,1-2.35-1.49h-.5a3.83,3.83,0,0,1-1.16-.26,3.76,3.76,0,0,1-3.49.7c-.15,0-.65-.09-1-.12a14.29,14.29,0,0,1-2.78-.49,3.81,3.81,0,0,1-2.33-5.15,19.61,19.61,0,0,0,1-4.69l.11-.83c.07-.52.15-1,.23-1.56a30.07,30.07,0,0,0,.53-6.08,3.93,3.93,0,0,1,.41-2.26,3.78,3.78,0,0,1,4.1-2.16c.67.12,1.38.21,2.13.31s1.35.17,2,.28A3.83,3.83,0,0,1,119,52.51a3.79,3.79,0,0,1,3.18-1.25c1,.1,1.91.24,2.79.38.54.09,1.07.17,1.62.24a3.79,3.79,0,0,1,2.92,5.46,13.47,13.47,0,0,0-.79,3.79c-.09.7-.18,1.49-.32,2.32-.06.44-.14.87-.21,1.31a24.35,24.35,0,0,0-.53,5.92,3.75,3.75,0,0,1-1.24,3.15A3.81,3.81,0,0,1,123.9,74.81ZM107.58,53.34Zm0,0Zm7.44-.23Zm0,0Z"/><path class="cls-1" d="M55.48,69a36.62,36.62,0,0,1-4.46.68,6.37,6.37,0,0,0-.86-3.6c-1.49.09-2.69.46-4.21.51a5.07,5.07,0,0,0,.17,3.78c-1.28.29-2.73.41-4,.69.85-2.78,1.2-7.69,1.63-11.33a19.2,19.2,0,0,0,.34-3.09c0-.61-.53-1.08-.43-1.64,2.13,0,4.24-.67,5.84-.68-.44,1.65.69,3.35,1.29,4.72,1.49,3.4,2.82,7.16,4.72,10m-9.27-5.15A9,9,0,0,0,49,63.37c-.6-1.95-1.57-4.27-2.41-6.26.06,2.37-.52,4.56-.34,6.78"/><path class="cls-1" d="M42.09,74.89A3.79,3.79,0,0,1,38.46,70a54.61,54.61,0,0,0,1.21-8.06c.09-.9.18-1.79.28-2.6,0-.41.11-.84.18-1.25,0-.26.09-.6.12-.86a5,5,0,0,1-.34-2.9,3.79,3.79,0,0,1,3.69-3.07,18.13,18.13,0,0,0,2.72-.33,20.28,20.28,0,0,1,3.12-.36,3.8,3.8,0,0,1,3.74,4.62,7.89,7.89,0,0,0,.6,1.41c.16.33.32.66.46,1,.37.84.73,1.71,1.09,2.58a41.48,41.48,0,0,0,3.29,6.77,3.79,3.79,0,0,1-2.08,5.77,24.59,24.59,0,0,1-3.87.66l-1.13.14A3.77,3.77,0,0,1,49,72.92a3.82,3.82,0,0,1-2,1.2c-.8.18-1.59.29-2.36.41s-1.2.17-1.71.28A3.53,3.53,0,0,1,42.09,74.89Zm11-19.56h0Z"/><path class="cls-1" d="M37.37,56.16a56.18,56.18,0,0,0,1.54,7.64c.7,2.84,1.08,5.39,2.23,7.47-1.41.24-2.72.6-4,.94a28.63,28.63,0,0,0-1.29-6.95c-1.38.2-2.58.57-3.86.86a23.21,23.21,0,0,0,1.89,6.78l-4.13.95c.09-2.7-.7-5.15-1.28-7.64-.22-.95-.47-1.9-.69-2.84a13,13,0,0,0-1.54-4.55,34.44,34.44,0,0,1,4.12-1c-.3,2.18.46,3.91.94,5.58a17,17,0,0,0,3.86-.86A18.88,18.88,0,0,0,33.5,57c1.3-.28,2.63-.52,3.87-.86"/><path class="cls-1" d="M29.72,77.64a3.78,3.78,0,0,1-3.79-3.91,19.79,19.79,0,0,0-.83-5.2l-.36-1.46c-.1-.45-.22-.91-.33-1.37s-.24-1-.35-1.46c-.06-.24-.11-.48-.17-.71a8.6,8.6,0,0,0-.8-2.55,3.79,3.79,0,0,1,1.62-5.65A16.78,16.78,0,0,1,28,54.41c.48-.09.93-.18,1.31-.28a3.79,3.79,0,0,1,1.77-.05,3.62,3.62,0,0,1,1.6-.77l1-.22c.93-.19,1.82-.37,2.61-.59a3.8,3.8,0,0,1,4.78,3.26,47.91,47.91,0,0,0,1.3,6.5l.16.63c.16.67.31,1.31.45,1.94a18.64,18.64,0,0,0,1.41,4.6A3.79,3.79,0,0,1,41.78,75c-1.16.2-2.27.49-3.44.81l-.26.06a3.71,3.71,0,0,1-1.9,0,3.69,3.69,0,0,1-1.46.71l-2.92.67-1.23.28A4,4,0,0,1,29.72,77.64Z"/><path class="cls-1" d="M128.71,56.25c2.87.68,5.89,1.2,8.67,2,0,1.05.32,2.38.26,3.44-1.43-1.09-3.58-1.46-5.67-1.89-.52.65-.52,1.82-.77,2.74.83.72,2.54.52,3.69.52-.21,1.25-.56,2.36-.77,3.6a9,9,0,0,0-3.44-1.2,9.23,9.23,0,0,0-.85,3.78,11.26,11.26,0,0,0,6.35.77,24.6,24.6,0,0,1-2,3.35c-3-.63-6.16-1.29-8.92-2a9.8,9.8,0,0,1,.86-1.64c.7-4.65,2.29-8.37,2.57-13.22Z"/><path class="cls-1" d="M134.21,77.13a4.13,4.13,0,0,1-.78-.08c-3.34-.7-6.33-1.33-9.07-2A3.79,3.79,0,0,1,122,69.53c.06-.11.1-.22.15-.33s.24-.54.41-.85c.31-1.78.72-3.4,1.11-5a37,37,0,0,0,1.29-7v-.14a3.78,3.78,0,0,1,1.45-3,3.82,3.82,0,0,1,3.23-.72c1.07.26,2.16.49,3.31.73,1.81.39,3.68.78,5.49,1.28a3.79,3.79,0,0,1,2.78,3.63c0,.25.06.67.11,1.08a15.42,15.42,0,0,1,.15,2.61,3.81,3.81,0,0,1-2.21,3.22,3.51,3.51,0,0,1-.95.3c0,.1-.05.21-.07.32-.08.31-.15.62-.22.92a3.83,3.83,0,0,1,1.7,4.82,18.69,18.69,0,0,1-1.71,3c-.18.27-.36.54-.53.83A3.79,3.79,0,0,1,134.21,77.13Z"/><path class="cls-1" d="M134.46,51.61a47,47,0,0,1-.08-5.06c2,1.38,4.32,3.08,7.38,2.83,1-.83,1.83-2.65.86-4-.93-.71-2.88-1.28-3.78-2.23a8.35,8.35,0,0,1-.94-1.72,6.43,6.43,0,0,1-.86-1.72c-.14-1.35,1.11-2.6,1.2-4.12.75-.44,1.49-.76,2.32-1.2a8,8,0,0,1,2.31-1.2,7.23,7.23,0,0,1,1.89.52c1.75.51,3.64,1.2,5.41,1.71.06,1.14,0,2.91,0,4.55-2.17-1.46-7.1-4.55-8.24-.6.67,2,2.93,2.39,4.46,3.52.3,1.29,1.56,2.09,1.72,3.35a8.09,8.09,0,0,1-.6,2.74c-.26.95-.68,1.67-.86,2.5a16.78,16.78,0,0,1-2.4,1.2c-.66.32-1.57,1.14-2.32,1.2a7.14,7.14,0,0,1-1.89-.6c-1.89-.59-3.76-1.17-5.58-1.72"/><path class="cls-1" d="M141.86,57.73a6.64,6.64,0,0,1-2.61-.64,3.19,3.19,0,0,0-.35-.14c-2.08-.66-3.9-1.21-5.53-1.7A3.8,3.8,0,0,1,130.69,52a26.92,26.92,0,0,1-.12-3.67c0-.53,0-1.08,0-1.74a3.81,3.81,0,0,1,3.66-3.85,6.09,6.09,0,0,1-1-2.62,7.74,7.74,0,0,1,.89-4.06,5.89,5.89,0,0,0,.3-.71,3.78,3.78,0,0,1,1.85-3c.58-.35,1.13-.62,1.65-.88.27-.13.55-.26.83-.41l.35-.23a7.26,7.26,0,0,1,3.44-1.4,6.9,6.9,0,0,1,2.86.52l.42.14c.86.25,1.74.54,2.6.83s1.89.62,2.77.87A3.82,3.82,0,0,1,154,35.3c.05,1.21,0,2.93,0,4.6v.18a3.77,3.77,0,0,1-2,3.3,3.19,3.19,0,0,1-.74.3,6.27,6.27,0,0,1,.69,2.14,8.65,8.65,0,0,1-.56,3.74q-.09.25-.15.48a12.54,12.54,0,0,1-.57,1.63c-.1.25-.21.53-.24.65a3.75,3.75,0,0,1-1.48,2.28,11.68,11.68,0,0,1-2.26,1.22c-.22.09-.45.19-.68.31-.08,0-.2.13-.33.21a7.16,7.16,0,0,1-3.37,1.37Zm-7.41-22.31Zm0-.08Z"/><path class="cls-1" d="M53.59,43.54c-.93,1.56-2.09,2.89-3.09,4.38-2.39.41-4.93.67-7.21,1.2-1.53-1-2.95-2.14-4.46-3.18.15-2.64-.47-5-.86-7.72-.46-3.1-.8-6.06-1.81-8.42,2-.15,3.7-.54,5.58-.77-.48,3.3.53,7.53,1.12,11.34.28,1.77.26,3.29,1.29,4.2a4.31,4.31,0,0,0,4.29-.77c.45-1.82-.25-5-.6-7.21A37.81,37.81,0,0,0,46,28.35c1.67-.34,3.49-.52,5.15-.86.07,0,.08,0,.08.08-.36,3,.47,6.13.95,9.28a33.55,33.55,0,0,0,1.37,6.69"/><path class="cls-1" d="M43.29,52.92a3.86,3.86,0,0,1-2.1-.63c-.9-.6-1.75-1.22-2.56-1.82s-1.3-.95-1.94-1.39A3.78,3.78,0,0,1,35,45.73a21.89,21.89,0,0,0-.49-4.93c-.12-.67-.23-1.34-.34-2-.05-.37-.11-.74-.16-1.12a27.91,27.91,0,0,0-1.38-6.36A3.8,3.8,0,0,1,35.86,26c1-.08,2-.24,3-.41.76-.12,1.55-.24,2.38-.35a3.75,3.75,0,0,1,2.12.36,3.73,3.73,0,0,1,1.9-1c.89-.17,1.79-.31,2.66-.44s1.7-.25,2.46-.41a3.86,3.86,0,0,1,4.63,3.44A3.22,3.22,0,0,1,55,28a21.77,21.77,0,0,0,.55,6c.13.75.27,1.49.38,2.24.06.39.12.77.17,1.16a23.59,23.59,0,0,0,1,4.75,3.82,3.82,0,0,1-.29,3.31,34.62,34.62,0,0,1-2,2.92C54.41,49,54,49.5,53.65,50a3.78,3.78,0,0,1-2.51,1.63c-.9.16-1.81.29-2.7.42-1.53.22-3,.44-4.29.74A4.12,4.12,0,0,1,43.29,52.92Z"/><path class="cls-1" d="M66.3,82.69l0,.21a1.49,1.49,0,0,0,0-.21h0"/><path class="cls-1" d="M66.33,86.7a3.92,3.92,0,0,1-1.17-7.63,3.76,3.76,0,0,1,.74-.16,3.79,3.79,0,0,1,4.2,3.52v0a3.8,3.8,0,0,1-3.32,4.19Zm1.1-.39h0Zm-4.85-2.84h0Zm0-.08Z"/><path class="cls-1" d="M70.5,82.86h0l0,.22c0-.07,0-.14,0-.22"/><path class="cls-1" d="M70.5,86.88a3.8,3.8,0,0,1-3.78-3.54v-.22a3.79,3.79,0,0,1,4.67-4,3.67,3.67,0,0,1,1.45.69,3.79,3.79,0,0,1,1.47,3V83a3.79,3.79,0,0,1-3.62,3.86Zm0-4h0Z"/><path class="cls-1" d="M70.35,80.74h.07Z"/><path class="cls-1" d="M70.42,84.56l-.31,0a3.8,3.8,0,1,1,1-7.5h.07l.18,0a3.8,3.8,0,0,1-1,7.46Zm-.13,0h0ZM70.07,82l-.65,2.38.12,0Z"/><path class="cls-1" d="M66.34,83a.28.28,0,0,0,0-.09.28.28,0,0,1,0,.09"/><path class="cls-1" d="M66.34,86.79a3.84,3.84,0,1,1,3.74-4.48c0,.11,0,.22,0,.33a3.79,3.79,0,0,1-3.42,4.13Zm-3.78-3.45a.77.77,0,0,1,0,.15l2.3-.36Zm2.35-.22-2.35.22h0Z"/><path class="cls-1" d="M70.51,83.11v0Z"/><path class="cls-1" d="M70.51,86.9a3.84,3.84,0,0,1-1.84-.47,3.79,3.79,0,0,1-1.91-2.74,4.07,4.07,0,0,1-.05-.61,3.8,3.8,0,0,1,7.57-.41A3.84,3.84,0,0,1,72,86.6h0A3.81,3.81,0,0,1,70.51,86.9Z"/><path class="cls-1" d="M91.36,82.26a2.35,2.35,0,0,1,0,.26h0v-.27Z"/><path class="cls-1" d="M91.37,86.33A3.81,3.81,0,0,1,88,84.19a3.91,3.91,0,0,1-.34-1,4.36,4.36,0,0,1-.05-.72v0a3.81,3.81,0,0,1,2.9-3.83h0a3.79,3.79,0,0,1,4.68,3.73v.27A3.79,3.79,0,0,1,92,86.27,3.36,3.36,0,0,1,91.37,86.33Zm.9-.38Zm-4.7-3.5h0Zm0-.13v0Z"/><path class="cls-1" d="M91.36,82.26Z"/><path class="cls-1" d="M91.35,86.06a3.8,3.8,0,0,1-3.72-4.59,3.83,3.83,0,0,1,2.57-2.82,3.79,3.79,0,1,1,2.29,7.23h0A3.63,3.63,0,0,1,91.35,86.06Z"/><path class="cls-1" d="M87.84,86.72v-.06a.13.13,0,0,1,0,.06Z"/><path class="cls-1" d="M87.84,90.52h0a3.79,3.79,0,0,1-3.74-4.41.6.6,0,0,1,0-.12,3.8,3.8,0,0,1,7.5,1.16l0,.16A3.78,3.78,0,0,1,87.84,90.52Zm-3.75-4.38v0l1.64.21Z"/><path class="cls-1" d="M87.92,86.27h0q0,.21-.06.39c.05-.23.07-.39.07-.39"/><path class="cls-1" d="M87.86,90.46a3.9,3.9,0,0,1-.59,0,3.8,3.8,0,0,1-3.18-4.25l.06-.42a3.79,3.79,0,0,1,6.67-1.92,3.75,3.75,0,0,1,.84,3.1l-.07.41A3.8,3.8,0,0,1,87.86,90.46Zm.06-.4h0Z"/><path class="cls-1" d="M107.59,80.54h0a0,0,0,0,1,0,0s0,0,0,0"/><path class="cls-1" d="M107.58,84.36a3.81,3.81,0,1,1,3.24-5.81l.07.11a3.81,3.81,0,0,1,.17,3.43l-.11.22A3.79,3.79,0,0,1,107.58,84.36Zm0-3.83Z"/><path class="cls-1" d="M107.8,77.7s0,.11,0,.16,0-.11,0-.16"/><path class="cls-1" d="M107.79,81.66h-.27a3.8,3.8,0,0,1-3.53-4V77.5a3.8,3.8,0,0,1,7.59.39c0,.11,0,.21,0,.31A3.8,3.8,0,0,1,107.79,81.66Z"/><path class="cls-1" d="M107.8,77.7c0-.33,0-.54,0-.55v0l0,.57"/><path class="cls-1" d="M107.8,81.49h-.3a3.79,3.79,0,0,1-3.49-4c0-.11,0-.2,0-.27v-.1a3.8,3.8,0,0,1,7.41-1.1,3.74,3.74,0,0,1,.12.45h0a5.15,5.15,0,0,1,.07.65v.08h0c0,.12,0,.26,0,.42l0,.46A3.79,3.79,0,0,1,107.8,81.49Zm-3.23-2.4Zm0,0Zm0,0h0Zm0,0Zm0,0Zm0,0h0Zm0,0Zm0,0Zm0,0h0Zm0,0Zm0,0Zm0,0h0Zm0,0Zm0,0Zm0,0Zm0,0Zm0,0Zm0,0Zm3.29-1.91Z"/><path class="cls-1" d="M113.34,83a0,0,0,0,0,0,0,1.1,1.1,0,0,0,0,.18l0-.17"/><path class="cls-1" d="M113.31,86.92a4,4,0,0,1-.6,0,3.8,3.8,0,0,1-3.17-4.18v0h0a3.79,3.79,0,0,1,5.1-3.27,3.83,3.83,0,0,1,2.16,2,3.78,3.78,0,0,1,.25,2.37l0,.13A3.81,3.81,0,0,1,113.31,86.92Zm0-4Z"/><path class="cls-1" d="M113.22,83.54a2.38,2.38,0,0,0,.09-.42l-.09.42"/><path class="cls-1" d="M113.22,87.33a3.47,3.47,0,0,1-.9-.11,3.79,3.79,0,0,1-2.83-4.37c0-.19.07-.38.11-.56a3.8,3.8,0,0,1,7.47,1.36,6.73,6.73,0,0,1-.22,1A3.79,3.79,0,0,1,113.22,87.33Zm-3.63-4.91s0,.11,0,.18l1.14.16Z"/><path class="cls-1" d="M77.42,88.1a33.73,33.73,0,0,1-1.24-3.51c1.69.51,3.73,1.14,5.8.26.48-.81.67-2.27-.31-3-.82-.27-2.3-.22-3.16-.67a6.68,6.68,0,0,1-1.05-1c-.31-.3-.86-.68-1-1-.41-.91.17-2.07-.12-3.15.42-.48.86-.88,1.34-1.38s.84-1.16,1.33-1.37a5.32,5.32,0,0,1,1.44-.08c1.34-.05,2.81,0,4.17-.06.3.78.69,2,1,3.17-1.85-.51-6-1.52-5.88,1.5.93,1.23,2.6,1,3.93,1.41.5.83,1.57,1.09,2,1.94a6.07,6.07,0,0,1,.22,2c0,.72-.09,1.32,0,1.94A12.15,12.15,0,0,1,84.5,86.6c-.38.38-.83,1.16-1.34,1.38a5.3,5.3,0,0,1-1.45,0c-1.46,0-2.9.06-4.29.1"/><path class="cls-1" d="M77.42,91.89A3.79,3.79,0,0,1,74,89.67,21.35,21.35,0,0,1,73,87c-.11-.35-.22-.73-.38-1.18A3.79,3.79,0,0,1,73.44,82l.17-.17a4.37,4.37,0,0,1-.61-1,6.67,6.67,0,0,1-.41-3.57c0-.11,0-.26,0-.35a3.78,3.78,0,0,1,.84-3.27c.35-.41.7-.75,1-1.06.15-.14.29-.28.44-.44l.15-.18a6.3,6.3,0,0,1,2.47-2.08,5.88,5.88,0,0,1,2.53-.39h.27c.67,0,1.36,0,2,0s1.44,0,2.09,0a3.79,3.79,0,0,1,3.7,2.42c.34.87.74,2.11,1.12,3.31l0,.09a3.78,3.78,0,0,1-.66,3.52,6.49,6.49,0,0,1,.49.83,7.31,7.31,0,0,1,.58,3.14v.33a10.22,10.22,0,0,1,0,1.4c0,.13,0,.32,0,.38A3.73,3.73,0,0,1,89,87.4,8.6,8.6,0,0,1,87.54,89l-.33.3-.13.17a6.34,6.34,0,0,1-2.42,2,5.65,5.65,0,0,1-2.71.34l-.22,0-4.2.1Zm9.76-2.6ZM72.67,77.08Z"/><path class="cls-1" d="M50.24,90.62c-1.22.13-2.39.32-3.64.4.39-2.68-.11-5.08-.37-7.45-.3-2.8-.34-5.4-1.19-7.66,1.38-.08,2.69-.25,4-.4,1.43,2.21,2.71,4.52,4,6.85.61-2.68,1.56-4.9,2.27-7.5,1.45-.12,2.86-.28,4.3-.41-.45,2.67.07,5,.35,7.57.3,2.77.36,5.33,1.15,7.53-1.34.11-2.66.25-4,.41.55-3.93-.59-6.67-.52-10.25-1,3.29-2.13,6.71-3,9.55-1.86-2.8-3.33-5.88-5-8.81.8,3.21.36,7.27,1.6,10.17"/><path class="cls-1" d="M46.6,94.82a3.8,3.8,0,0,1-3.75-4.34,18.29,18.29,0,0,0-.2-4.93c-.07-.52-.14-1-.19-1.57s-.13-1.3-.19-1.94a19.37,19.37,0,0,0-.78-4.8,3.76,3.76,0,0,1,.37-3.4,3.81,3.81,0,0,1,3-1.72c1-.06,2-.17,3-.29l.81-.09A3.8,3.8,0,0,1,52,73.07a3.77,3.77,0,0,1,3-2c.83-.07,1.65-.15,2.47-.24l1.79-.17a3.78,3.78,0,0,1,4.09,4.4,16.38,16.38,0,0,0,.18,4.9c.07.54.14,1.09.2,1.64s.13,1.27.18,1.89a21,21,0,0,0,.77,4.77,3.79,3.79,0,0,1-3.26,5.06c-1.32.11-2.62.25-3.84.4a3.82,3.82,0,0,1-2.84-.84,2.4,2.4,0,0,1-.53.12,3.63,3.63,0,0,1-1,0,3.77,3.77,0,0,1-2.55,1.37c-.44,0-.87.1-1.3.15-.78.1-1.59.2-2.46.26Z"/><path class="cls-1" d="M73.85,84.06c-.35-3.46-.56-8.12-.08-10.65-1.48,0-2.57.2-4.21.18a24.57,24.57,0,0,1,.76,7.16h0l.07,0h-.07l.14,2.11h0c0,.08,0,.15,0,.22v0h0a4,4,0,0,1-.26,2.24c-.84.47-2.36.93-3.27.26-.73-.55-.51-1.57-.64-2.62a.28.28,0,0,0,0-.09l0-.21h0a1,1,0,0,0,0-.17h0c0-3.23-.7-5.85,0-8.67-1.47,0-2.56.21-4.21.17a52.32,52.32,0,0,1,.77,12.19c1.06.45,2,2.28,3.09,2.57a12.86,12.86,0,0,0,3.35-.17c.74,0,1.44,0,2.23-.08a18.73,18.73,0,0,1,1.38-1.46c.28-.31,1.22-1.13,1.29-1.63s-.3-1-.35-1.38"/><path class="cls-1" d="M66.72,92.67A6.67,6.67,0,0,1,65,92.45,7.17,7.17,0,0,1,61.48,90c-.13-.14-.3-.34-.42-.45a3.8,3.8,0,0,1-2-3.49,49.64,49.64,0,0,0-.68-11.2,3.8,3.8,0,0,1,3.79-4.64,17.51,17.51,0,0,0,1.93-.07c.64-.05,1.37-.11,2.22-.1a3.74,3.74,0,0,1,1.33.25,3.83,3.83,0,0,1,1.94-.51c.86,0,1.53,0,2.31-.08.54,0,1.1-.07,1.74-.09a3.81,3.81,0,0,1,3.85,4.5,41.15,41.15,0,0,0,.1,9.27A5.13,5.13,0,0,1,78,86a6.23,6.23,0,0,1-2.12,3.55,1.58,1.58,0,0,0-.13.13c-.25.27-.5.51-.7.71s-.35.35-.44.46a3.77,3.77,0,0,1-2.74,1.5c-.59,0-1.13.06-1.6.07l-.75,0c-.21,0-.51,0-.83.1A13.57,13.57,0,0,1,66.72,92.67Zm-5.34-3Zm16.25-6Z"/><path class="cls-1" d="M97.63,85.09c-.68,0-1.36.49-2.23.6a20.39,20.39,0,0,1-2.75-.08c-.54,0-1.15.2-1.37-.35-.06-.94.07-1.7.09-2.57h0v-.16h0a2.35,2.35,0,0,0,0-.26h0c0-.21,0-.42.09-.52a8.38,8.38,0,0,1,3.61.52c-.08-1.2.12-2.56,0-3.52a6,6,0,0,1-3.61.26c0-1.11,0-2.07.09-2.75a11.37,11.37,0,0,1,5.92.69c-.16-.94-.67-2.25-.94-3.35-2.82,0-5.49-.18-8.59-.26a19.2,19.2,0,0,1,.26,5.75c0,1,.09,2.3,0,3.06a6.4,6.4,0,0,1-.06,1.08,14.48,14.48,0,0,1-.21,3h0s0,.16-.07.39v.06h0c-.07.44-.19,1.09-.26,1.5,2.88.34,5.48.1,8.76.39.42-1.19.85-2.36,1.29-3.52"/><path class="cls-1" d="M96.34,92.41l-.34,0c-1.42-.13-2.75-.14-4-.16A45.49,45.49,0,0,1,87.13,92a3.8,3.8,0,0,1-3.29-4.42l.26-1.5,0-.07h0v0a1.49,1.49,0,0,1,0-.21l0-.13a12,12,0,0,0,.17-2,3.66,3.66,0,0,1,0-1c0-.07,0-.23,0-.43a3.87,3.87,0,0,1,0-.48c0-.15,0-.66,0-1,0-.54,0-1.15,0-1.76a17.47,17.47,0,0,0-.13-4.58A3.79,3.79,0,0,1,88,69.54c1.22,0,2.36.07,3.47.12,1.72.07,3.35.14,5,.13h0a3.8,3.8,0,0,1,3.68,2.87c.09.36.22.78.36,1.24a17.37,17.37,0,0,1,.64,2.4A3.81,3.81,0,0,1,99.76,80a3.75,3.75,0,0,1-.89.5c0,.07,0,.14,0,.21,0,.28,0,.56,0,.82a3.79,3.79,0,0,1,2.34,5c-.41,1.07-.82,2.19-1.24,3.4A3.81,3.81,0,0,1,96.34,92.41Zm-11.93-10s0,.07,0,.11S84.4,82.43,84.41,82.4Z"/><path class="cls-1" d="M111.8,74.79c-1.58-.12-2.83-.27-4.21-.34a13,13,0,0,1,.24,2.68v0s0,.22,0,.55c0,0,0,.11,0,.16,0,.67-.12,1.7-.19,2.67h0s0,0,0,0c-.08,1.06-.16,2.06-.22,2.45a.8.8,0,0,1,0,.15c0,1.25,0,2.45-.85,3a3.33,3.33,0,0,1-3.18-.34c-.58-1.43-.14-3,0-4.72.18-2.35.11-5,.94-6.87-1.53-.19-2.69-.26-4.29-.43a43,43,0,0,1-.37,8.53h0s0,.4-.07.75a9.42,9.42,0,0,1-.43,2.9c1,1,1.77,2.07,2.75,3,2.13.11,3.75.33,5.75.43.57-.94,2.71-1.58,3-2.66a5,5,0,0,0-.09-1.2c0-1.28.33-3,.43-4.55.16-2.48.07-4.45.86-6.18"/><path class="cls-1" d="M107.59,93.18h-.18c-1.06,0-2-.13-2.92-.21s-1.82-.17-2.83-.21a3.86,3.86,0,0,1-2.43-1,25.11,25.11,0,0,1-1.71-1.85c-.38-.44-.74-.86-1.09-1.2a3.79,3.79,0,0,1-1-3.74,6.1,6.1,0,0,0,.29-1.81,2.47,2.47,0,0,1,0-.47l0-.34c0-.14,0-.28,0-.42l0-.13a39.59,39.59,0,0,0,.36-7.52A3.8,3.8,0,0,1,100.35,70l1.72.17c.86.08,1.67.15,2.64.27a4,4,0,0,1,1.47.5,3.84,3.84,0,0,1,1.61-.26c.88,0,1.68.12,2.53.19l1.76.16a3.79,3.79,0,0,1,3.17,5.35,10.61,10.61,0,0,0-.44,3.37c0,.47,0,1-.08,1.48,0,.82-.15,1.63-.24,2.35s-.16,1.33-.18,1.81a5.1,5.1,0,0,1,0,2.33A6.56,6.56,0,0,1,111,91.44l-.46.29A3.78,3.78,0,0,1,107.59,93.18Zm3.25-1.83Zm3.47-5.8h0Z"/><path class="cls-1" d="M128.79,77.19c-1.46-.14-2.76-.44-4.2-.6-1.42,2-2.66,4.26-4.12,6.27-.71-2.38-1.49-4.69-2.06-7.21-1.08-.11-3.06-.54-4.38-.6.34,2.7-.38,4.81-.66,7.41,0,.11,0,.29,0,.48a0,0,0,0,1,0,0l0,.17a2.38,2.38,0,0,1-.09.42c-.4,2.13-.54,4.54-1.42,6.19,1.17.28,2.54.37,3.77.6-.46-3.06.92-6.32,1-9.7.12.56.39,1.25.53,1.79h0l.14.53h0c.64,2.3,1.15,4.74,2,6.86,1.78-2.67,3.55-5.37,5.32-8.07-.82,3.08-.82,7-2.06,9.62a37.5,37.5,0,0,0,4,.6,36.24,36.24,0,0,1,.78-7.64,40.2,40.2,0,0,1,1.45-7.13"/><path class="cls-1" d="M126.56,95.75h-.29a37.52,37.52,0,0,1-4.46-.65,3.8,3.8,0,0,1-2.34-1.49,4.14,4.14,0,0,1-.61,0,4,4,0,0,1-1-.24,3.8,3.8,0,0,1-3,.71c-.41-.07-.88-.14-1.38-.2a23.41,23.41,0,0,1-2.61-.45,3.76,3.76,0,0,1-2.57-2.14,3.81,3.81,0,0,1,.12-3.34,12.55,12.55,0,0,0,.73-3.22c.1-.61.19-1.24.31-1.88l.06-.25s0-.07,0-.11,0-.18,0-.24,0-.12,0-.18c.1-.93.24-1.75.38-2.55a12.82,12.82,0,0,0,.29-4,3.79,3.79,0,0,1,3.95-4.27,27,27,0,0,1,3.19.4c.53.09,1.08.18,1.39.21a3.79,3.79,0,0,1,3,2.12,3.82,3.82,0,0,1,3.2-1.17c.75.09,1.45.2,2.11.31s1.36.22,2,.28a3.8,3.8,0,0,1,3.19,5.14,30.64,30.64,0,0,0-1.08,5.24c-.06.39-.12.76-.18,1.12l-.18,1.15a26.78,26.78,0,0,0-.54,5.75,3.79,3.79,0,0,1-3.8,3.94Z"/><path class="cls-1" d="M82.05,132.73a23.56,23.56,0,0,1,19.55,10.4l16.68-32.21A51.15,51.15,0,0,0,46.79,110L63.7,141.52a23.5,23.5,0,0,1,18.35-8.79"/><path class="cls-1" d="M101.59,146.93a3.8,3.8,0,0,1-3.14-1.68,19.77,19.77,0,0,0-31.79-1.35,3.79,3.79,0,0,1-6.3-.59L43.44,111.78a3.8,3.8,0,0,1,.73-4.55,54.93,54.93,0,0,1,76.8,1,3.79,3.79,0,0,1,.68,4.42L105,144.88a3.81,3.81,0,0,1-3.15,2Zm-19.54-18a27.3,27.3,0,0,1,18.76,7.45l12.79-24.68a47.34,47.34,0,0,0-62.06-.89L64.62,135.2A27.27,27.27,0,0,1,82.05,128.94Z"/><path class="cls-1" d="M86.16,96.44l-3.33,37.13a15.11,15.11,0,0,0-9,1.52c-19.81-30-20.31-30-20.31-30S67.35,93.9,86.16,96.44"/><path class="cls-1" d="M73.84,138.89a3.81,3.81,0,0,1-3.17-1.7c-16.43-24.9-19.43-28.91-19.88-29.48a3.66,3.66,0,0,1-.84-1.36,3.79,3.79,0,0,1,1.19-4.21c.62-.5,15.32-12.19,35.52-9.46a3.8,3.8,0,0,1,3.28,4.1l-3.33,37.13a3.81,3.81,0,0,1-4.48,3.39h0a11.45,11.45,0,0,0-6.52,1.15A3.74,3.74,0,0,1,73.84,138.89ZM58.93,106c.14.21.29.42.45.64,3.17,4.58,8.65,12.76,15.92,23.75a19.21,19.21,0,0,1,4.07-.75L82,99.89A43,43,0,0,0,58.93,106Zm-6.69,2.63a3.8,3.8,0,0,0,1.28.22A3.87,3.87,0,0,1,52.24,108.66Z"/><path class="cls-1" d="M81.64,133.12a18.08,18.08,0,0,0-3.78.28L70,97.37A44.63,44.63,0,0,1,82.75,96c-1.2,35.75-1.11,37.15-1.11,37.15"/><path class="cls-1" d="M77.86,137.19a3.78,3.78,0,0,1-3.7-3l-7.84-36A3.8,3.8,0,0,1,69,93.72a48.3,48.3,0,0,1,14-1.54,3.79,3.79,0,0,1,3.57,3.92c-1,30.86-1.1,36-1.1,36.81a3.44,3.44,0,0,1-1,2.92,3.71,3.71,0,0,1-3,1.08,13.91,13.91,0,0,0-2.88.22A4.37,4.37,0,0,1,77.86,137.19Zm-3.31-36.9,3.71,17c.15-4.86.34-10.75.56-17.56A41.12,41.12,0,0,0,74.55,100.29Z"/><path class="cls-1" d="M81.64,133.12a18.08,18.08,0,0,0-3.78.28L70,97.37A44.63,44.63,0,0,1,82.75,96C81.55,131.72,81.64,133.12,81.64,133.12Z"/><path class="cls-1" d="M77.86,137.19a3.78,3.78,0,0,1-3.7-3l-7.84-36A3.8,3.8,0,0,1,69,93.72a48.3,48.3,0,0,1,14-1.54,3.79,3.79,0,0,1,3.57,3.92c-1,30.86-1.1,36-1.1,36.81a3.44,3.44,0,0,1-1,2.92,3.71,3.71,0,0,1-3,1.08,13.91,13.91,0,0,0-2.88.22A4.37,4.37,0,0,1,77.86,137.19Zm-3.31-36.9,3.71,17c.15-4.86.34-10.75.56-17.56A41.12,41.12,0,0,0,74.55,100.29Z"/><path class="cls-1" d="M118.79,109.78S103.17,92.86,78.18,94.85c-23,2.19-31.54,14.23-31.73,14.23"/><path class="cls-1" d="M118.79,113.57a3.78,3.78,0,0,1-2.79-1.21c-.2-.21-14.8-15.52-37.49-13.73-5.89.57-20.43,2.93-29,12.69a4,4,0,0,1-3.1,1.56,3.8,3.8,0,0,1-2.64-6.52l0,0a38.81,38.81,0,0,1,9.34-7.65c6.92-4.15,15.21-6.7,24.64-7.6h.06c26.52-2.11,43,15.39,43.69,16.13a3.79,3.79,0,0,1-2.78,6.37Zm-72.36-8.28Zm0,0h0Zm0,0Zm0,0Z"/><path class="cls-1" d="M115.92,116s-14.33-16.92-37.26-14.93c-21.14,2.19-28.93,14.23-29.11,14.23"/><path class="cls-1" d="M115.93,119.78a3.82,3.82,0,0,1-2.9-1.34c-.15-.18-13.44-15.38-34-13.61-5.35.56-18.54,2.9-26.28,12.57a4,4,0,0,1-3.19,1.68,3.8,3.8,0,0,1-2.76-6.4l0,0c3.19-4,12.62-13.42,31.46-15.37h.06c24.61-2.13,39.85,15.5,40.49,16.26a3.79,3.79,0,0,1-2.89,6.25ZM47.57,112a3.59,3.59,0,0,0-.56.43A3.33,3.33,0,0,1,47.57,112Zm2-.55Zm0,0h0Zm0,0Zm0,0h0Zm0,0Zm0,0Z"/><path class="cls-1" d="M115,117.43s-13.92-16.92-36.2-14.93c-20.54,2.19-28.11,14.23-28.29,14.23"/><path class="cls-1" d="M115,121.22a3.79,3.79,0,0,1-2.92-1.37c-.17-.2-13-15.32-32.91-13.57-5.18.56-17.94,2.89-25.44,12.52a4,4,0,0,1-3.22,1.73,3.8,3.8,0,0,1-3.79-3.8,3.75,3.75,0,0,1,1-2.56l0,0c3.1-4,12.3-13.45,30.65-15.41h.07c24-2.14,38.85,15.54,39.47,16.3a3.79,3.79,0,0,1-2.93,6.2Zm-66.27-7.84a3.67,3.67,0,0,0-.82.59A4,4,0,0,1,48.71,113.38Zm1.65-.44Zm0,0Zm0,0Zm0,0Zm0,0h0Zm0,0Zm0,0Zm0,0h0Zm0,0Zm0,0h0Zm0,0h0Zm0,0Zm0,0h0Zm0,0Zm0,0h0Zm0,0h0Zm0,0Zm0,0h0Zm0,0Zm0,0Zm0,0h0Zm0,0Z"/><path class="cls-1" d="M81.94,132.38a23.27,23.27,0,0,0-18.24,8.83l19.58,36.91,18.08-35.29a23.32,23.32,0,0,0-19.42-10.45"/><path class="cls-1" d="M83.28,181.92a3.8,3.8,0,0,1-3.35-2L60.35,143a3.77,3.77,0,0,1,.39-4.14,27,27,0,0,1,21.19-10.26h0a27.12,27.12,0,0,1,22.57,12.14,3.8,3.8,0,0,1,.23,3.84L86.66,179.85a3.81,3.81,0,0,1-3.35,2.07Zm-15-40.15,14.92,28.14L96.9,143.2a19.51,19.51,0,0,0-15-7h0A19.38,19.38,0,0,0,68.3,141.77Z"/><path class="cls-1" d="M81.94,132.38a23.27,23.27,0,0,0-18.24,8.83l19.58,36.91,18.08-35.29A23.32,23.32,0,0,0,81.94,132.38Z"/><path class="cls-1" d="M83.28,181.92a3.8,3.8,0,0,1-3.35-2L60.35,143a3.77,3.77,0,0,1,.39-4.14,27,27,0,0,1,21.19-10.26h0a27.12,27.12,0,0,1,22.57,12.14,3.8,3.8,0,0,1,.23,3.84L86.66,179.85a3.81,3.81,0,0,1-3.35,2.07Zm-15-40.15,14.92,28.14L96.9,143.2a19.51,19.51,0,0,0-15-7h0A19.38,19.38,0,0,0,68.3,141.77Z"/><path class="cls-1" d="M88.16,155.6a5.37,5.37,0,1,1-5.36-5.37,5.36,5.36,0,0,1,5.36,5.37"/><path class="cls-1" d="M82.8,164.76A9.16,9.16,0,1,1,92,155.6,9.17,9.17,0,0,1,82.8,164.76Zm0-10.73a1.57,1.57,0,1,0,1.57,1.57A1.57,1.57,0,0,0,82.8,154Z"/><path class="cls-1" d="M69.27,138.45l.24.33c-.49.36-1,.74-1.44,1.15l.81.93c.37-.33.75-.63,1.13-.92l.25.32c-.38.29-.76.59-1.12.9l1.06,1.22a15.66,15.66,0,0,1,1.44-1.14l.23.33a18.09,18.09,0,0,0-2.33,2l-2.87-2.87a22.71,22.71,0,0,1,2.6-2.23"/><path class="cls-1" d="M69.54,147.34h0a3.81,3.81,0,0,1-2.69-1.11L64,143.37A3.8,3.8,0,0,1,64,138a25.87,25.87,0,0,1,3-2.61,3.79,3.79,0,0,1,5.32.84l.22.3a3.75,3.75,0,0,1,.6,1.24,3.79,3.79,0,0,1,1.57,1.29l.23.33a3.79,3.79,0,0,1-.9,5.28,15.13,15.13,0,0,0-1.85,1.56A3.8,3.8,0,0,1,69.54,147.34Z"/><path class="cls-1" d="M73.32,137.36l-.54.38a1.52,1.52,0,0,0-.09-.26c-.21-.42-.64-.48-1.26-.13s-.65.58-.47.86.5.21,1.1.06c1.18-.27,1.89,0,2.16.56a1.2,1.2,0,0,1,0,1,2,2,0,0,1-.84.84c-.89.51-1.53.51-2-.13a1.3,1.3,0,0,1-.12-.21l.46-.46a1.39,1.39,0,0,0,.18.42c.28.43.67.46,1.19.16s.55-.51.38-.83-.5-.31-1.14-.18c-.92.21-1.56.1-1.93-.43a1,1,0,0,1-.08-1,2.19,2.19,0,0,1,1-1c1-.56,1.67-.41,2,.31"/><path class="cls-1" d="M72.24,144.84a4.69,4.69,0,0,1-3.94-2.09,5.35,5.35,0,0,1-.41-.7,2.55,2.55,0,0,1-.13-.29,4.59,4.59,0,0,1-.45-.56,4.77,4.77,0,0,1-.45-4.66,5.91,5.91,0,0,1,2.56-2.78,5.36,5.36,0,0,1,4.43-.61,4.78,4.78,0,0,1,2.91,2.61c0,.09.08.18.11.27a4.84,4.84,0,0,1,.8,1.22,5,5,0,0,1,0,4.19A5.64,5.64,0,0,1,75.27,144,6.1,6.1,0,0,1,72.24,144.84Zm-1.64-5a2.7,2.7,0,0,0,.39.27l.76-.24.15.16L74,139a2.81,2.81,0,0,0,0-1.19,2.73,2.73,0,0,0-.43-.26l-.76.17-.07-.1-2.06,1A2.72,2.72,0,0,0,70.6,139.87Z"/><path class="cls-1" d="M77,134.86l.1.39q-.58.15-1.17.33L77,139.06q-.6.18-1.2.42l-1.32-3.41c-.38.15-.75.31-1.13.48,0-.12-.11-.25-.17-.37A22,22,0,0,1,77,134.86"/><path class="cls-1" d="M75.78,143.27a3.8,3.8,0,0,1-3.54-2.42l-.29-.77a3.78,3.78,0,0,1-2.08-2l-.16-.35a3.79,3.79,0,0,1,1.89-5,24.28,24.28,0,0,1,4.46-1.55,3.75,3.75,0,0,1,2.87.43A3.84,3.84,0,0,1,80.66,134l.09.39a3.75,3.75,0,0,1-.39,2.8l.24.8a3.8,3.8,0,0,1-2.5,4.75c-.33.1-.65.21-.95.33A3.86,3.86,0,0,1,75.78,143.27Z"/><path class="cls-1" d="M78.56,137.64c.37-.07.58.07.64.42a.48.48,0,0,1-.43.61.53.53,0,1,1-.21-1"/><path class="cls-1" d="M78.59,142.48a4.35,4.35,0,0,1-3.6-6.67,4.32,4.32,0,0,1,2.83-1.89h0a4.32,4.32,0,1,1,1.67,8.47A4.76,4.76,0,0,1,78.59,142.48Zm0-7.59A3.15,3.15,0,0,0,78,135a3.32,3.32,0,0,0-2.56,3.73,3.36,3.36,0,0,0,3.85,2.69l-.74-3.73.75,3.72a3.35,3.35,0,0,0,2.52-4A3.32,3.32,0,0,0,78.62,134.89Z"/><path class="cls-1" d="M84.91,137.47c0,.32-.09.64-.13,1a18.11,18.11,0,0,0-3-.16c0-.19,0-.38,0-.57a9.3,9.3,0,0,1,.89-.88c.8-.67,1.27-1.15,1.29-1.52a.62.62,0,0,0-.64-.77c-.57,0-.85.28-.85.86a2,2,0,0,0,.11.59l-.71-.14a1.69,1.69,0,0,1-.1-.45c0-.82.59-1.27,1.85-1.21a2.16,2.16,0,0,1,1.26.43.9.9,0,0,1,.39.87c0,.38-.43.74-1.07,1.12l-.43.26-.45.32-.21.13a16.49,16.49,0,0,1,1.85.16"/><path class="cls-1" d="M84.78,142.23a3,3,0,0,1-.52,0,14.8,14.8,0,0,0-2.4-.13A3.79,3.79,0,0,1,78,138.4l0-.57a3.82,3.82,0,0,1,.16-1.22,5,5,0,0,1,1.26-4.74,5.6,5.6,0,0,1,4.41-1.48,6,6,0,0,1,3.45,1.26A4.73,4.73,0,0,1,89,136a4.46,4.46,0,0,1-.29,1.09,3.87,3.87,0,0,1,0,.9l-.13.95A3.81,3.81,0,0,1,84.78,142.23Z"/><path class="cls-1" d="M88.07,134.91a1.74,1.74,0,0,1,1.28,2.6c-.5,1.31-1.28,1.73-2.37,1.44s-1.53-1-1.31-2.43a1.73,1.73,0,0,1,2.4-1.61m-.08.31c-.37-.1-.69.43-1,1.58s-.25,1.75,0,1.84.62-.44,1-1.57.33-1.75,0-1.85"/><path class="cls-1" d="M87.61,142.83a6.26,6.26,0,0,1-1.63-.22c-3-.79-4.58-3.41-4.06-6.69a5.69,5.69,0,0,1,2.47-4,5.63,5.63,0,0,1,4.65-.63h0a5.6,5.6,0,0,1,3.71,2.89,6.22,6.22,0,0,1-5.18,8.69Zm.37-7.55-.87,3.3a2.23,2.23,0,0,0,2.3-1.44A2.26,2.26,0,0,0,88,135.28Zm-2.18.89a2.26,2.26,0,0,0,1.26,2.4l.91-3.29h0A2.19,2.19,0,0,0,85.8,136.17Z"/><path class="cls-1" d="M92.4,136.58a1.75,1.75,0,0,1,.74,2.83c-.77,1.17-1.63,1.42-2.65.89s-1.31-1.35-.8-2.66a1.74,1.74,0,0,1,2.71-1.06m-.15.29c-.34-.18-.77.27-1.28,1.33s-.61,1.67-.33,1.81.71-.29,1.27-1.32.69-1.65.34-1.82"/><path class="cls-1" d="M91.46,144.36a5.8,5.8,0,0,1-2.71-.69c-2.76-1.39-3.79-4.3-2.61-7.39a5.5,5.5,0,0,1,8-3.09l0,0a5.51,5.51,0,0,1,2.16,8.29A5.81,5.81,0,0,1,91.46,144.36ZM90.69,140a2.1,2.1,0,0,0,1.44-.05,2.12,2.12,0,0,0,1.09-.89,2.22,2.22,0,0,0-1-2.11L90.69,140ZM90,137.35a2.06,2.06,0,0,0-.09,1.4,1.94,1.94,0,0,0,.79,1.19l1.57-3h0A2.18,2.18,0,0,0,90,137.35Z"/><path class="cls-1" d="M97,141.23l-.55-.4a2.11,2.11,0,0,0,.26-.22c.24-.27.2-.56-.13-.85a.72.72,0,0,0-.7-.2,2.73,2.73,0,0,0-.93.73,1.5,1.5,0,0,1,1.46,1.33,1.14,1.14,0,0,1-.35.94A1.4,1.4,0,0,1,95,143a1.94,1.94,0,0,1-1.14-.48,1.84,1.84,0,0,1-.31-2.78,2,2,0,0,1,1.39-.95,2.21,2.21,0,0,1,1.71.59c.79.68.94,1.28.5,1.72l-.14.12m-1.71-.55q-.43-.36-1,.39c-.44.56-.54.94-.29,1.14s.6,0,1.1-.56.46-.76.21-1"/><path class="cls-1" d="M95,146.8h-.15a5.54,5.54,0,0,1-3.47-1.37,5.61,5.61,0,0,1-1-7.78A5.81,5.81,0,0,1,94.42,135a6,6,0,0,1,4.66,1.46,5.36,5.36,0,0,1,2.07,3.88,4.51,4.51,0,0,1-1.32,3.39.8.8,0,0,0-.13.13,5.06,5.06,0,0,1-1,1.35A5.22,5.22,0,0,1,95,146.8Zm-1-4.65.11.14a1.75,1.75,0,0,0,1.25.27,2,2,0,0,0,1.22-.64l-1.7-1.63,0-1.08a2.51,2.51,0,0,0-1.25.38,3.25,3.25,0,0,0-.15,1,2.68,2.68,0,0,0,.48,1.53l1.22-1.47Z"/><path class="cls-1" d="M80.3,56.13c.92-.16,1.5-.29,2.49-.51a10.28,10.28,0,0,1,.53.93,3.44,3.44,0,0,0-1.77.18,5.31,5.31,0,0,0,.2,1,1.43,1.43,0,0,0,1-.32c.06.39.16.76.23,1.1a2.34,2.34,0,0,0-1.07,0,4.29,4.29,0,0,0,.53,1.9,12.33,12.33,0,0,1-1.23.26,7.31,7.31,0,0,0-.28-2,11.18,11.18,0,0,0-.64-2.51s0-.05,0-.07"/><path class="cls-1" d="M81.24,64.47a3.81,3.81,0,0,1-2.66-1.09,3.76,3.76,0,0,1-1.13-2.9c0-.12-.06-.29-.08-.43s-.1-.43-.14-.64l0-.2a12.15,12.15,0,0,0-.32-1.4,3.41,3.41,0,0,1-.26-.76l0-.08a3.79,3.79,0,0,1,3.07-4.59c.81-.13,1.29-.24,2.27-.46a3.8,3.8,0,0,1,4,1.64,13.59,13.59,0,0,1,.7,1.22,3.78,3.78,0,0,1,.11,3.31,3.86,3.86,0,0,1-.52,2.33A3.65,3.65,0,0,1,86,61.8a3.8,3.8,0,0,1-2.58,2.28c-.22.06-1,.25-1.6.35A3.77,3.77,0,0,1,81.24,64.47Zm-3.76-4.3Zm-.86-3.12h0Zm0,0Z"/><path class="cls-1" d="M80.3,56.13c.92-.16,1.5-.29,2.49-.51a10.28,10.28,0,0,1,.53.93,3.44,3.44,0,0,0-1.77.18,5.31,5.31,0,0,0,.2,1,1.43,1.43,0,0,0,1-.32c.06.39.16.76.23,1.1a2.34,2.34,0,0,0-1.07,0,4.29,4.29,0,0,0,.53,1.9,12.33,12.33,0,0,1-1.23.26,7.31,7.31,0,0,0-.28-2,11.18,11.18,0,0,0-.64-2.51S80.31,56.15,80.3,56.13Z"/><path class="cls-1" d="M81.24,64.47a3.81,3.81,0,0,1-2.66-1.09,3.76,3.76,0,0,1-1.13-2.9c0-.12-.06-.29-.08-.43s-.1-.43-.14-.64l0-.2a12.15,12.15,0,0,0-.32-1.4,3.41,3.41,0,0,1-.26-.76l0-.08a3.79,3.79,0,0,1,3.07-4.59c.81-.13,1.29-.24,2.27-.46a3.8,3.8,0,0,1,4,1.64,13.59,13.59,0,0,1,.7,1.22,3.78,3.78,0,0,1,.11,3.31,3.86,3.86,0,0,1-.52,2.33A3.65,3.65,0,0,1,86,61.8a3.8,3.8,0,0,1-2.58,2.28c-.22.06-1,.25-1.6.35A3.77,3.77,0,0,1,81.24,64.47Zm-3.76-4.3Zm-.86-3.12h0Zm0,0Z"/><path class="cls-1" d="M79.57,54.71c1-.09,2.33-.51,3.38-.59.42,0,1.15-.1,1.27.51-3.13.26-6.52.95-9.72,1.48a2.52,2.52,0,0,1,.1-.85c.21,0,.2.16.38.16.65-.22,1.48,0,2-.5,1,.09,2.41.06,3-1.27-.24-.36-.58.1-.68.48-.75-1.11,1.14-1.79,1.17-.57,0,.77-.5.73-.87,1.15"/><path class="cls-1" d="M74.5,59.91A3.8,3.8,0,0,1,71,57.55a4.55,4.55,0,0,1-.16-2.8l0-.06A3.79,3.79,0,0,1,74,51.51a3.93,3.93,0,0,1,1.28,0,4.17,4.17,0,0,1,.67-.25c.07-.1.13-.2.2-.29a4.56,4.56,0,0,1,5-1.65,4.33,4.33,0,0,1,1.7,1,6,6,0,0,1,1.7.12,4.39,4.39,0,0,1,3.36,3.44,3.75,3.75,0,0,1-.68,3,3.79,3.79,0,0,1-2.72,1.51c-2.16.18-4.56.6-6.89,1l-2.53.44A4.44,4.44,0,0,1,74.5,59.91Zm-3.66-5.17v0Z"/><path class="cls-1" d="M80.26,62c-1,.08-2.35.5-3.42.58-.42,0-1.16.09-1.28-.51,3.17-.26,6.59-.94,9.82-1.46.08.17-.06.56-.1.85-.21,0-.19-.17-.39-.16-.65.21-1.48,0-2,.49-1-.09-2.44-.06-3,1.27.24.36.59-.1.69-.48.76,1.11-1.15,1.78-1.19.56,0-.76.51-.72.88-1.14"/><path class="cls-1" d="M80,67.62a4.45,4.45,0,0,1-1.3-.19,4.33,4.33,0,0,1-1.72-1,5.64,5.64,0,0,1-1.71-.11,4.4,4.4,0,0,1-3.39-3.43,3.78,3.78,0,0,1,3.41-4.54c2.19-.18,4.63-.6,7-1l2.54-.42a3.8,3.8,0,0,1,4.12,2.3A4.63,4.63,0,0,1,89.05,62v.06a3.8,3.8,0,0,1-3.21,3.18,3.86,3.86,0,0,1-1.27,0,4.54,4.54,0,0,1-.7.26l-.18.26A4.66,4.66,0,0,1,80,67.62ZM89.05,62v0Z"/><path class="cls-1" d="M79.59,57.45l-.94-1.05L77,56.75l-.5,1.06.35,2.52,1.12.78,1.43-.21.68-1.08Zm-.72,2.74-.76.16-.5-.38-.24-2,.27-.44.75-.16.43.42.31,1.79Z"/><path class="cls-1" d="M78,64.9a3.77,3.77,0,0,1-2.19-.69l-1.11-.78a3.74,3.74,0,0,1-1.57-2.57l-.36-2.51a3.73,3.73,0,0,1,.33-2.16l.5-1.07A3.82,3.82,0,0,1,76.24,53l1.63-.34a3.8,3.8,0,0,1,3.61,1.18l.94,1.05a3.91,3.91,0,0,1,.89,1.74l.5,2.37a3.75,3.75,0,0,1-.5,2.81l-.68,1.08A3.78,3.78,0,0,1,80,64.65l-1.43.21A3.39,3.39,0,0,1,78,64.9Z"/><path class="cls-1" d="M79.59,57.45l-.94-1.05L77,56.75l-.5,1.06.35,2.52,1.12.78,1.43-.21.68-1.08Zm-.72,2.74-.76.16-.5-.38-.24-2,.27-.44.75-.16.43.42.31,1.79Z"/><path class="cls-1" d="M78,64.9a3.77,3.77,0,0,1-2.19-.69l-1.11-.78a3.74,3.74,0,0,1-1.57-2.57l-.36-2.51a3.73,3.73,0,0,1,.33-2.16l.5-1.07A3.82,3.82,0,0,1,76.24,53l1.63-.34a3.8,3.8,0,0,1,3.61,1.18l.94,1.05a3.91,3.91,0,0,1,.89,1.74l.5,2.37a3.75,3.75,0,0,1-.5,2.81l-.68,1.08A3.78,3.78,0,0,1,80,64.65l-1.43.21A3.39,3.39,0,0,1,78,64.9Z"/><path class="cls-1" d="M89,44.29,88.35,46l-5.65-.21s.6-1.91.84-1.91S90,41.16,90,41.16Z"/><path class="cls-1" d="M88.35,49.83H88.2l-5.64-.21a3.8,3.8,0,0,1-3.48-4.92c.47-1.53,1.23-4,3.54-4.49.88-.35,3.56-1.52,5.82-2.52a3.79,3.79,0,0,1,5.15,4.63l-1,3.14a.56.56,0,0,1,0,.12l-.62,1.74A3.81,3.81,0,0,1,88.35,49.83Zm-4.81-9.72Z"/><path class="cls-2" d="M41.18,79.56l1.78.15a8.8,8.8,0,0,1-.09,1,7.6,7.6,0,0,1-.21.87l1,.52.43.21-.88,1.83c-.24-.1-.49-.22-.75-.35s-.5-.26-.71-.35a4.24,4.24,0,0,1-1,.86,5.41,5.41,0,0,1-1.74.6,3.19,3.19,0,0,1-2.48-.36,2.63,2.63,0,0,1-1.11-1.77,2.78,2.78,0,0,1,.18-1.6,3.42,3.42,0,0,1,1.26-1.47,5,5,0,0,1-.79-1,3,3,0,0,1-.33-.91A2.32,2.32,0,0,1,36,76a2.68,2.68,0,0,1,1.82-1,2.69,2.69,0,0,1,2.06.27,2,2,0,0,1,.89,1.36,2.39,2.39,0,0,1,0,1,2.57,2.57,0,0,1-.33.8,12.75,12.75,0,0,1-.81,1A15.39,15.39,0,0,0,41,80.45,6.13,6.13,0,0,0,41.18,79.56ZM38,80.79a2.37,2.37,0,0,0-.48.75A1.21,1.21,0,0,0,38,82.92a1.21,1.21,0,0,0,.95.21,2.33,2.33,0,0,0,1.21-.79A25.73,25.73,0,0,1,38,80.79Zm.37-2.43a2.19,2.19,0,0,0,.54-.72A1,1,0,0,0,39,77a.74.74,0,0,0-.28-.48.68.68,0,0,0-.57-.11.71.71,0,0,0-.5.33.79.79,0,0,0-.11.58A2.23,2.23,0,0,0,38.37,78.36Z"/><path class="cls-3" d="M118.51,111l40.33-77.85C156,23.77,90.53,20,67.67,20.87c-70.29,5.21-61.54,13-61.54,13L47,110.06a51.15,51.15,0,0,1,71.49.94"/><path class="cls-4" d="M83.27,186.21,6.19,45.05S5,42,6.66,40.64L83.18,181S159.31,40.51,158.55,40.46s2.3.64.77,3.77c-73.49,137.1-76,142-76,142"/><path class="cls-5" d="M16.77,25.78S72.54,10.54,146.05,25c0,0,.71-5-6.8-8s-67.43-13-114.82,0c-3.76.36-9.41,5.79-7.66,8.8"/><path class="cls-5" d="M149.15,25.85l-2-.7s2-7.39-13.71-11.33S98.23,8.34,53.88,10.36c-6.44.36-32,3.34-36.13,9.42-.12,0-2,1.53-1.84,5.89a6.47,6.47,0,0,1-2.45.43S10.83,14.18,32.89,11c12.64-3,57.48-8.11,103.38,1.55,6.08,1.79,14.19,5.37,13.71,13.59Z"/><path class="cls-5" d="M83.39,6.79c4.57-.12,10,.8,13.56,3.35,1.59,1.13,3.38,2.82,2.41,5.4-.75,2-3,3.42-5.07,4.3-6.63,2.77-16.75,2.39-22.23-1.12C70.85,18,68.9,16.2,69,14.09c0-1.36,1.46-3.1,2-3.61,2.45-2.06,7.77-3.57,12.37-3.69M79.78,20.1c.58.06,1.19-.11,1.55,0a24.37,24.37,0,0,1-.09-5.41c.28.23,1.1-.07,1.37.17,0,1.78,0,3.57-.08,5.24A7.51,7.51,0,0,0,84.07,20,80,80,0,0,1,84,8.51a3.23,3.23,0,0,0-1.55,0,31.48,31.48,0,0,1,.17,4.2c-.68-.06-.94.16-1.45,0a24.48,24.48,0,0,1,.08-4.2c-.59,0-.93-.16-1.55-.09a105.57,105.57,0,0,1,.09,11.68m5.15-5.84A41.49,41.49,0,0,1,84.85,20a4.12,4.12,0,0,0,1.63,0,17.12,17.12,0,0,1-.17-5c.7-.16.82.26,1.28.34a16.78,16.78,0,0,1,0-2.66c-.51,0-.62.47-1.28.34a14.21,14.21,0,0,1-.09-2.57,3,3,0,0,1,2.15.43A21.28,21.28,0,0,0,88,8.51c-1.06-.1-2.08,0-3.34-.09a17.39,17.39,0,0,1,.17,5.15c-.18-.11-.06-.52-.26-.6-.48.25-.47.47-.6,1,.56,0,.63.16.94.26M74.37,9.71a67.5,67.5,0,0,1,.09,9.18c.26.18.81.05,1.2.09a44.84,44.84,0,0,1-.17-6c.51,1.66.56,3.79,1.29,5.24a35.56,35.56,0,0,1,1.11-5.16c0,2.08,0,3.53-.17,5.93h1.2a74.84,74.84,0,0,1-.08-9.36c-.42,0-1-.09-1.29.09-.32,1.37-.49,2.88-.86,4.2-.33-1.41-.62-2.86-.94-4.29-.45,0-1.07-.09-1.38.09M89.22,19a2.7,2.7,0,0,0,1.12-.17,32.94,32.94,0,0,1-.17-5.76c.51,1.61.57,3.67,1.2,5.16a49.14,49.14,0,0,1,1.12-5.33,49.52,49.52,0,0,1-.17,6,2,2,0,0,0,1.2,0c-.11-3.06-.26-6.4-.09-9.27H92.14a33.91,33.91,0,0,1-.85,4.29c-.26-1.46-.65-2.79-.86-4.29H89.14c.13,3.69.16,6.72.08,9.36"/><path class="cls-5" d="M102.65,14.26c0,5.79-8.26,10.47-18.44,10.47S65.77,20.05,65.77,14.26,74,3.8,84.21,3.8s18.44,4.68,18.44,10.46"/><path class="cls-6" d="M79.65,8.43c.61-.07,1,.13,1.55.09a23.59,23.59,0,0,0-.09,4.21c.51.16.77-.07,1.46,0a33.41,33.41,0,0,0-.17-4.21,3.19,3.19,0,0,1,1.54,0A78.55,78.55,0,0,0,84,20a7.57,7.57,0,0,1-1.55.09c.11-1.67.1-3.46.09-5.24-.28-.24-1.1.07-1.37-.17a24.38,24.38,0,0,0,.08,5.41c-.36-.11-1,.06-1.54,0a110.7,110.7,0,0,0-.09-11.68"/><path class="cls-6" d="M75.7,9.63c.32,1.43.61,2.88,1,4.3.36-1.33.54-2.84.85-4.21.29-.18.87-.05,1.29-.09A73,73,0,0,0,78.88,19h-1.2c.12-2.39.13-3.85.17-5.92a35.41,35.41,0,0,0-1.12,5.15C76,16.77,76,14.64,75.45,13a44.84,44.84,0,0,0,.17,6c-.4,0-1,.09-1.21-.09a65.86,65.86,0,0,0-.08-9.18c.31-.18.93,0,1.37-.09"/><path class="cls-6" d="M89.09,9.63h1.29c.22,1.5.61,2.83.86,4.3a34.37,34.37,0,0,0,.86-4.3h1.29c-.18,2.87,0,6.21.08,9.27a2,2,0,0,1-1.2,0,49.42,49.42,0,0,0,.17-6,49,49,0,0,0-1.11,5.32c-.63-1.49-.7-3.55-1.21-5.15a32.88,32.88,0,0,0,.18,5.75,2.7,2.7,0,0,1-1.12.17c.08-2.64,0-5.67-.09-9.36"/><path class="cls-6" d="M84.52,5.27h.54a31.7,31.7,0,0,1,6.85.91A15.21,15.21,0,0,1,99,9.72a6.41,6.41,0,0,1,2.14,4.46c0,1.71-.78,2.67-1.46,3.87-5,5.77-18.68,6.6-26.78,2.83-2.71-1.26-5.46-3.43-5.5-6.61a6.82,6.82,0,0,1,2.49-4.9c3.79-3.27,9.77-4.12,14.66-4.1M71,10.49c-.6.51-2,2.25-2.06,3.61C68.85,16.21,70.8,18,72,18.73c5.48,3.51,15.61,3.89,22.24,1.12,2.09-.87,4.31-2.31,5.06-4.29,1-2.59-.82-4.28-2.4-5.41-3.58-2.55-9-3.47-13.57-3.35S73.42,8.43,71,10.49"/><path class="cls-6" d="M84.63,8.43c1.26.07,2.28,0,3.35.09a19.26,19.26,0,0,1,.34,2.4,3,3,0,0,0-2.15-.43,16.48,16.48,0,0,0,.09,2.58c.66.12.77-.32,1.29-.34a14.69,14.69,0,0,0,0,2.66c-.46-.09-.58-.51-1.29-.35a17.84,17.84,0,0,0,.17,5,4.12,4.12,0,0,1-1.63,0c.26-2.21.27-10.29-.17-11.59"/><path class="cls-6" d="M81.15,25.77c2.55,0,4.64,0,6.95.09.32,1.65,1.13,3.27,1.38,4.72-1.65-.91-5.41-1.71-7.13-.26-.86,1.18-.73,3.32-.68,5.75,0,2.09-.1,4,.68,5.24,1.8,1.5,5.71.6,7.56-.17-.45,1.21-.85,2.47-1.21,3.77-1.24-2-4-.27-4.8,1H81.15c-1.3-1.37-2.64-2.68-4-4v-9a13.54,13.54,0,0,1,0-2.92c.15-.53,1.3-1.47,1.8-2,.84-.84,1.5-1.42,2.15-2.15"/><path class="cls-6" d="M74.54,25.94c.28.58-.2,1.49-.26,2.15a32.11,32.11,0,0,0,.17,3.69c.09,1.88.17,3.95.26,5.92.15,3.21-.1,5.75.77,8.24-1.75,0-3.74.13-5.32.18.64-2.75.34-6.45.17-10s-.13-7.08-.94-10C71,26,73.33,26,74.54,25.94"/><path class="cls-6" d="M97.2,26.2c-.88,2.71-.69,6.27-.86,10s-.6,7,.18,10c-1.5-.11-3.44-.07-5.33-.26.9-2.67.82-6.58,1-9.87.14-3.52.5-6.94-.17-9.87v-.26c2.07.12,3.27.17,5.23.26"/><path class="cls-6" d="M65.52,26.29a7.23,7.23,0,0,1,1,2.06,7.53,7.53,0,0,1,.78,2.14c-2.32-1-8.88-1.13-7.56,2.49.63,1.7,3.31,1.1,5.33,1.63.92.91,2,1.71,2.91,2.58-.23,2,.71,3.52.35,5.15-.15.67-1.17,1.5-1.63,2.06-.63.76-1.17,1.41-1.63,2.06-2.94.14-5.21.46-7.82.6-.62-1.52-1.32-3-1.88-4.55a13.31,13.31,0,0,0,4.72.6c1.41-.13,2.39-.18,3.17-.86.75-1.46.53-3.39-.77-4-1.14-.49-3.06-.09-4.29-.6a9.71,9.71,0,0,1-1.46-1.28c-.56-.48-1.24-.73-1.46-1.21a7,7,0,0,1-.17-2.06A7.59,7.59,0,0,1,55,31c.14-.67,1.11-1.55,1.63-2.15s1.2-1.32,1.71-2c2.51-.21,4.94-.37,7.21-.6"/><path class="cls-6" d="M104.76,26.63c2.64.39,5.06.47,7.72.77-.84,1.62-.33,3.71.09,5.93.25,1.3.54,2.62.77,3.86.76,4,.9,7.7,2.32,10.56a52.42,52.42,0,0,1-5.92-.52,7.68,7.68,0,0,0,.08-4.72,9.61,9.61,0,0,0-2.91-.34c-.81-.08-2.26-.52-2.75-.26s-1,2.43-1,3.09a14.24,14.24,0,0,1,.08,1.63c-1.74-.17-3.57-.26-5.23-.51,2.18-4,3.71-9,5.49-13.74.75-2,1.8-3.33,1.29-5.75m.6,11.67a13.26,13.26,0,0,0,3.78.43c-.18-2.85-.8-5.87-1.12-8.67-.71,2.93-1.9,5.37-2.66,8.24"/><path class="cls-6" d="M126.14,29.29c1.2,3.89,2.37,7.81,3.43,11.85.38-3.88,1.64-7.31,1.37-10.91,1.56.37,3.21.63,4.81.95C134.28,34,134,37.7,133.43,41s-1.22,6.38-1.8,9.78c-1.1,0-2.68-.56-3.78-.6-1.34-4.83-2.87-9.49-4-14.51-.4,4.58-2.25,8.71-1.81,13.31-1.65-.24-3.19-.58-4.8-.86,1.18-2.61,1.54-6.12,2.23-9.79.64-3.39,1.72-6.31,1.2-9.7a.47.47,0,0,0,.09-.25c1.88.23,3.5.73,5.41.94"/><path class="cls-6" d="M24.15,53.67c-1.56.45-3,1-4.64,1.37-.12-3.59-1.34-6.59-2.23-9.61-1.05-3.59-1.72-7-3.35-9.7,1.78-.43,3.45-1,5.15-1.46,2.39,2.54,4.6,5.24,6.78,8,.16-3.63.88-6.75,1.2-10.3,1.86-.49,3.66-1,5.5-1.54,0,3.59,1.28,6.55,2.23,9.78,1,3.54,1.73,6.85,3.26,9.53-1.71.46-3.39,1-5.06,1.46C32.79,46,30.65,42.64,29.9,38c-.53,4.52-1.2,9.24-1.63,13.14-3.09-3.21-5.72-6.88-8.59-10.31,1.79,4,2.17,9.4,4.47,12.88"/><path class="cls-6" d="M87.24,52.13c3.12.2,5.11.23,8.5.25.39,1.1.73,2.25,1,3.44-1.51-.86-4-.91-5.92-.78a18.16,18.16,0,0,0-.09,3.27,4.88,4.88,0,0,0,3.61-.26c-.11,1.33-.05,2.58-.09,3.78a8.18,8.18,0,0,0-3.52-.69A14.05,14.05,0,0,0,91,67.75c-1.29,0-3.07,0-4.21-.09.64-1.66.49-4.11.61-6.61a37.61,37.61,0,0,0-.18-8.67Z"/><path class="cls-6" d="M104.93,53.07c-.79,2,.3,5.25.77,7.64.62,3.12,1,5.84,2,8.07-1.73,0-3.28-.19-4.55-.26a10.16,10.16,0,0,0,.08-3.52c-1-.65-3-.28-4.38-.6-.82.78-.82,2.35-.77,3.61a20.62,20.62,0,0,1-3.86-.17c1.52-3,2.47-6.72,3.69-10.31.58-1.7,1.4-3,1-4.89,1.71.09,4.08.27,6,.43m-5.32,8.59a7.8,7.8,0,0,0,2.92.17c-.41-2.17-.61-4.55-1.12-6.61-.36,2.32-1.5,4.33-1.8,6.44"/><path class="cls-6" d="M59.43,53.24c-.66,2.89.09,6.55.34,9.62a6.45,6.45,0,0,0,.52,3c2-.23,4.16-.36,5.41-1.37.13,1-.52,2.67-.78,3.86-3.18.1-5.59.59-8.41.69.47-2.48,0-4.89-.26-7.81a37.35,37.35,0,0,0-1-7.64c1.39-.14,2.79-.25,4.21-.35"/><path class="cls-6" d="M72.2,52.41C71.38,55.25,71.92,59,72,62a6.35,6.35,0,0,0,.34,3c2-.12,4.18-.12,5.48-1.07.08,1-.67,2.64-1,3.82-3.19-.08-5.62.27-8.44.2.61-2.44.26-4.87.19-7.81a38.32,38.32,0,0,0-.6-7.69c1.39,0,2.8-.08,4.22-.1"/><path class="cls-6" d="M115.57,54.1q1.11,3.78,2.15,7.64c1.31-2.3,2.7-4.51,4.12-6.7,1.49.14,2.85.42,4.3.61-1,1.93-1,4.31-1.46,7.21A33.44,33.44,0,0,0,123.9,71c-1.27-.25-2.67-.35-4-.6,1-2.6,1.07-6.94,1.89-10-1.65,2.58-3.5,5.71-5.23,8.5a29.53,29.53,0,0,1-1.46-4.81c-.46-1.66-.94-3.3-1.29-5-.26,3.57-1.41,7.22-1,10.39-1-.29-2.57-.25-3.69-.6a26.43,26.43,0,0,0,1.37-6.53c.41-3,1-6.14.77-8.58,0-.14.08-.15.09-.26,1.36.24,2.82.38,4.2.6"/><path class="cls-6" d="M55.48,69a36.62,36.62,0,0,1-4.46.68,6.37,6.37,0,0,0-.86-3.6c-1.49.09-2.69.46-4.21.51a5.07,5.07,0,0,0,.17,3.78c-1.28.29-2.73.41-4,.69.85-2.78,1.2-7.69,1.63-11.33a19.2,19.2,0,0,0,.34-3.09c0-.61-.53-1.08-.43-1.64,2.13,0,4.24-.67,5.84-.68-.44,1.65.69,3.35,1.29,4.72,1.49,3.4,2.82,7.16,4.72,10m-9.27-5.15A9,9,0,0,0,49,63.37c-.6-1.95-1.57-4.27-2.41-6.26.06,2.37-.52,4.56-.34,6.78"/><path class="cls-6" d="M37.37,56.16a56.18,56.18,0,0,0,1.54,7.64c.7,2.84,1.08,5.39,2.23,7.47-1.41.24-2.72.6-4,.94a28.63,28.63,0,0,0-1.29-6.95c-1.38.2-2.58.57-3.86.86a23.21,23.21,0,0,0,1.89,6.78l-4.13.95c.09-2.7-.7-5.15-1.28-7.64-.22-.95-.47-1.9-.69-2.84a13,13,0,0,0-1.54-4.55,34.44,34.44,0,0,1,4.12-1c-.3,2.18.46,3.91.94,5.58a17,17,0,0,0,3.86-.86A18.88,18.88,0,0,0,33.5,57c1.3-.28,2.63-.52,3.87-.86"/><path class="cls-6" d="M128.71,56.25c2.87.68,5.89,1.2,8.67,2,0,1.05.32,2.38.26,3.44-1.43-1.09-3.58-1.46-5.67-1.89-.52.65-.52,1.82-.77,2.74.83.72,2.54.52,3.69.52-.21,1.25-.56,2.36-.77,3.6a9,9,0,0,0-3.44-1.2,9.23,9.23,0,0,0-.85,3.78,11.26,11.26,0,0,0,6.35.77,24.6,24.6,0,0,1-2,3.35c-3-.63-6.16-1.29-8.92-2a9.8,9.8,0,0,1,.86-1.64c.7-4.65,2.29-8.37,2.57-13.22Z"/><path class="cls-6" d="M134.46,51.61a47,47,0,0,1-.08-5.06c2,1.38,4.32,3.08,7.38,2.83,1-.83,1.83-2.65.86-4-.93-.71-2.88-1.28-3.78-2.23a8.35,8.35,0,0,1-.94-1.72,6.43,6.43,0,0,1-.86-1.72c-.14-1.35,1.11-2.6,1.2-4.12.75-.44,1.49-.76,2.32-1.2a8,8,0,0,1,2.31-1.2,7.23,7.23,0,0,1,1.89.52c1.75.51,3.64,1.2,5.41,1.71.06,1.14,0,2.91,0,4.55-2.17-1.46-7.1-4.55-8.24-.6.67,2,2.93,2.39,4.46,3.52.3,1.29,1.56,2.09,1.72,3.35a8.09,8.09,0,0,1-.6,2.74c-.26.95-.68,1.67-.86,2.5a16.78,16.78,0,0,1-2.4,1.2c-.66.32-1.57,1.14-2.32,1.2a7.14,7.14,0,0,1-1.89-.6c-1.89-.59-3.76-1.17-5.58-1.72"/><path class="cls-6" d="M53.59,43.54c-.93,1.56-2.09,2.89-3.09,4.38-2.39.41-4.93.67-7.21,1.2-1.53-1-2.95-2.14-4.46-3.18.15-2.64-.47-5-.86-7.72-.46-3.1-.8-6.06-1.81-8.42,2-.15,3.7-.54,5.58-.77-.48,3.3.53,7.53,1.12,11.34.28,1.77.26,3.29,1.29,4.2a4.31,4.31,0,0,0,4.29-.77c.45-1.82-.25-5-.6-7.21A37.81,37.81,0,0,0,46,28.35c1.67-.34,3.49-.52,5.15-.86.07,0,.08,0,.08.08-.36,3,.47,6.13.95,9.28a33.55,33.55,0,0,0,1.37,6.69"/><path class="cls-1" d="M66.3,82.69l0,.21a1.49,1.49,0,0,0,0-.21h0"/><path class="cls-1" d="M70.5,82.86h0l0,.22c0-.07,0-.14,0-.22"/><path class="cls-1" d="M70.35,80.74h.07Z"/><path class="cls-1" d="M66.34,83a.28.28,0,0,0,0-.09.28.28,0,0,1,0,.09"/><path class="cls-1" d="M70.51,83.11v0Z"/><path class="cls-1" d="M91.36,82.26a2.35,2.35,0,0,1,0,.26h0v-.27Z"/><path class="cls-1" d="M91.36,82.26Z"/><path class="cls-1" d="M87.84,86.72v-.06a.13.13,0,0,1,0,.06Z"/><path class="cls-1" d="M87.92,86.27h0q0,.21-.06.39c.05-.23.07-.39.07-.39"/><path class="cls-1" d="M107.59,80.54h0a0,0,0,0,1,0,0s0,0,0,0"/><path class="cls-1" d="M107.8,77.7s0,.11,0,.16,0-.11,0-.16"/><path class="cls-1" d="M107.8,77.7c0-.33,0-.54,0-.55v0l0,.57"/><path class="cls-1" d="M113.34,83a0,0,0,0,0,0,0,1.1,1.1,0,0,0,0,.18l0-.17"/><path class="cls-1" d="M113.22,83.54a2.38,2.38,0,0,0,.09-.42l-.09.42"/><path class="cls-6" d="M77.42,88.1a33.73,33.73,0,0,1-1.24-3.51c1.69.51,3.73,1.14,5.8.26.48-.81.67-2.27-.31-3-.82-.27-2.3-.22-3.16-.67a6.68,6.68,0,0,1-1.05-1c-.31-.3-.86-.68-1-1-.41-.91.17-2.07-.12-3.15.42-.48.86-.88,1.34-1.38s.84-1.16,1.33-1.37a5.32,5.32,0,0,1,1.44-.08c1.34-.05,2.81,0,4.17-.06.3.78.69,2,1,3.17-1.85-.51-6-1.52-5.88,1.5.93,1.23,2.6,1,3.93,1.41.5.83,1.57,1.09,2,1.94a6.07,6.07,0,0,1,.22,2c0,.72-.09,1.32,0,1.94A12.15,12.15,0,0,1,84.5,86.6c-.38.38-.83,1.16-1.34,1.38a5.3,5.3,0,0,1-1.45,0c-1.46,0-2.9.06-4.29.1"/><path class="cls-6" d="M50.24,90.62c-1.22.13-2.39.32-3.64.4.39-2.68-.11-5.08-.37-7.45-.3-2.8-.34-5.4-1.19-7.66,1.38-.08,2.69-.25,4-.4,1.43,2.21,2.71,4.52,4,6.85.61-2.68,1.56-4.9,2.27-7.5,1.45-.12,2.86-.28,4.3-.41-.45,2.67.07,5,.35,7.57.3,2.77.36,5.33,1.15,7.53-1.34.11-2.66.25-4,.41.55-3.93-.59-6.67-.52-10.25-1,3.29-2.13,6.71-3,9.55-1.86-2.8-3.33-5.88-5-8.81.8,3.21.36,7.27,1.6,10.17"/><path class="cls-1" d="M73.85,84.06c-.35-3.46-.56-8.12-.08-10.65-1.48,0-2.57.2-4.21.18a24.57,24.57,0,0,1,.76,7.16h0l.07,0h-.07l.14,2.11h0c0,.08,0,.15,0,.22v0h0a4,4,0,0,1-.26,2.24c-.84.47-2.36.93-3.27.26-.73-.55-.51-1.57-.64-2.62a.28.28,0,0,0,0-.09l0-.21h0a1,1,0,0,0,0-.17h0c0-3.23-.7-5.85,0-8.67-1.47,0-2.56.21-4.21.17a52.32,52.32,0,0,1,.77,12.19c1.06.45,2,2.28,3.09,2.57a12.86,12.86,0,0,0,3.35-.17c.74,0,1.44,0,2.23-.08a18.73,18.73,0,0,1,1.38-1.46c.28-.31,1.22-1.13,1.29-1.63s-.3-1-.35-1.38"/><path class="cls-1" d="M97.63,85.09c-.68,0-1.36.49-2.23.6a20.39,20.39,0,0,1-2.75-.08c-.54,0-1.15.2-1.37-.35-.06-.94.07-1.7.09-2.57h0v-.16h0a2.35,2.35,0,0,0,0-.26h0c0-.21,0-.42.09-.52a8.38,8.38,0,0,1,3.61.52c-.08-1.2.12-2.56,0-3.52a6,6,0,0,1-3.61.26c0-1.11,0-2.07.09-2.75a11.37,11.37,0,0,1,5.92.69c-.16-.94-.67-2.25-.94-3.35-2.82,0-5.49-.18-8.59-.26a19.2,19.2,0,0,1,.26,5.75c0,1,.09,2.3,0,3.06a6.4,6.4,0,0,1-.06,1.08,14.48,14.48,0,0,1-.21,3h0s0,.16-.07.39v.06h0c-.07.44-.19,1.09-.26,1.5,2.88.34,5.48.1,8.76.39.42-1.19.85-2.36,1.29-3.52"/><path class="cls-1" d="M111.8,74.79c-1.58-.12-2.83-.27-4.21-.34a13,13,0,0,1,.24,2.68v0s0,.22,0,.55c0,0,0,.11,0,.16,0,.67-.12,1.7-.19,2.67h0s0,0,0,0c-.08,1.06-.16,2.06-.22,2.45a.8.8,0,0,1,0,.15c0,1.25,0,2.45-.85,3a3.33,3.33,0,0,1-3.18-.34c-.58-1.43-.14-3,0-4.72.18-2.35.11-5,.94-6.87-1.53-.19-2.69-.26-4.29-.43a43,43,0,0,1-.37,8.53h0s0,.4-.07.75a9.42,9.42,0,0,1-.43,2.9c1,1,1.77,2.07,2.75,3,2.13.11,3.75.33,5.75.43.57-.94,2.71-1.58,3-2.66a5,5,0,0,0-.09-1.2c0-1.28.33-3,.43-4.55.16-2.48.07-4.45.86-6.18"/><path class="cls-1" d="M128.79,77.19c-1.46-.14-2.76-.44-4.2-.6-1.42,2-2.66,4.26-4.12,6.27-.71-2.38-1.49-4.69-2.06-7.21-1.08-.11-3.06-.54-4.38-.6.34,2.7-.38,4.81-.66,7.41,0,.11,0,.29,0,.48a0,0,0,0,1,0,0l0,.17a2.38,2.38,0,0,1-.09.42c-.4,2.13-.54,4.54-1.42,6.19,1.17.28,2.54.37,3.77.6-.46-3.06.92-6.32,1-9.7.12.56.39,1.25.53,1.79h0l.14.53h0c.64,2.3,1.15,4.74,2,6.86,1.78-2.67,3.55-5.37,5.32-8.07-.82,3.08-.82,7-2.06,9.62a37.5,37.5,0,0,0,4,.6,36.24,36.24,0,0,1,.78-7.64,40.2,40.2,0,0,1,1.45-7.13"/><path class="cls-7" d="M82.05,132.73a23.56,23.56,0,0,1,19.55,10.4l16.68-32.21A51.15,51.15,0,0,0,46.79,110L63.7,141.52a23.5,23.5,0,0,1,18.35-8.79"/><path class="cls-8" d="M86.16,96.44l-3.33,37.13a15.11,15.11,0,0,0-9,1.52c-19.81-30-20.31-30-20.31-30S67.35,93.9,86.16,96.44"/><path class="cls-6" d="M81.64,133.12a18.08,18.08,0,0,0-3.78.28L70,97.37A44.63,44.63,0,0,1,82.75,96c-1.2,35.75-1.11,37.15-1.11,37.15"/><path class="cls-1" d="M77.83,133.45v0L70,97.34h0a44.78,44.78,0,0,1,12.73-1.4h0v0c-1.18,35.24-1.11,37.08-1.1,37.14v0h0a17.87,17.87,0,0,0-3.77.28Zm-7.75-36,7.82,35.94a18.2,18.2,0,0,1,3.7-.28c0-.44,0-4.47,1.1-37.06A44.82,44.82,0,0,0,70.08,97.41Z"/><path class="cls-7" d="M118.66,109.9c-.16-.17-15.86-16.83-40.47-14.87-6.3.6-22,3.15-31.36,13.91-.26.3-.28.32-.38.32v-.18l-.1-.14a2.37,2.37,0,0,0,.21-.24c9.48-10.85,25.26-13.42,31.6-14,24.79-2,40.6,14.81,40.76,15Z"/><path class="cls-9" d="M115.8,116.09c-.15-.17-14.55-16.83-37.12-14.87-5.78.6-20.15,3.15-28.77,13.91-.24.3-.26.32-.36.32v-.17l-.1-.13.19-.23c8.7-10.86,23.18-13.43,29-14,22.76-2,37.27,14.82,37.41,15Z"/><path class="cls-9" d="M114.85,117.53c-.14-.16-14.12-16.82-36.06-14.86C62,104.47,53.64,113,50.85,116.57c-.24.31-.26.33-.36.33v-.17l-.1-.13.19-.23c2.82-3.62,11.2-12.22,28.18-14,22.11-2,36.21,14.81,36.35,15Z"/><path class="cls-10" d="M81.94,132.38a23.27,23.27,0,0,0-18.24,8.83l19.58,36.91,18.08-35.29a23.32,23.32,0,0,0-19.42-10.45"/><path class="cls-11" d="M83.29,178.9l-20-37.73.14-.19a23.61,23.61,0,0,1,18.51-9h0a23.69,23.69,0,0,1,19.71,10.61l.12.17-.09.19ZM64.13,141.25l19.14,36.1,17.67-34.5a23,23,0,0,0-19-10.11h0A22.83,22.83,0,0,0,64.13,141.25Z"/><path class="cls-5" d="M88.16,155.6a5.37,5.37,0,1,1-5.36-5.37,5.36,5.36,0,0,1,5.36,5.37"/><path class="cls-3" d="M69.27,138.45l.24.33c-.49.36-1,.74-1.44,1.15l.81.93c.37-.33.75-.63,1.13-.92l.25.32c-.38.29-.76.59-1.12.9l1.06,1.22a15.66,15.66,0,0,1,1.44-1.14l.23.33a18.09,18.09,0,0,0-2.33,2l-2.87-2.87a22.71,22.71,0,0,1,2.6-2.23"/><path class="cls-3" d="M73.32,137.36l-.54.38a1.52,1.52,0,0,0-.09-.26c-.21-.42-.64-.48-1.26-.13s-.65.58-.47.86.5.21,1.1.06c1.18-.27,1.89,0,2.16.56a1.2,1.2,0,0,1,0,1,2,2,0,0,1-.84.84c-.89.51-1.53.51-2-.13a1.3,1.3,0,0,1-.12-.21l.46-.46a1.39,1.39,0,0,0,.18.42c.28.43.67.46,1.19.16s.55-.51.38-.83-.5-.31-1.14-.18c-.92.21-1.56.1-1.93-.43a1,1,0,0,1-.08-1,2.19,2.19,0,0,1,1-1c1-.56,1.67-.41,2,.31"/><path class="cls-3" d="M77,134.86l.1.39q-.58.15-1.17.33L77,139.06q-.6.18-1.2.42l-1.32-3.41c-.38.15-.75.31-1.13.48,0-.12-.11-.25-.17-.37A22,22,0,0,1,77,134.86"/><path class="cls-3" d="M78.56,137.64c.37-.07.58.07.64.42a.48.48,0,0,1-.43.61.53.53,0,1,1-.21-1"/><path class="cls-3" d="M84.91,137.47c0,.32-.09.64-.13,1a18.11,18.11,0,0,0-3-.16c0-.19,0-.38,0-.57a9.3,9.3,0,0,1,.89-.88c.8-.67,1.27-1.15,1.29-1.52a.62.62,0,0,0-.64-.77c-.57,0-.85.28-.85.86a2,2,0,0,0,.11.59l-.71-.14a1.69,1.69,0,0,1-.1-.45c0-.82.59-1.27,1.85-1.21a2.16,2.16,0,0,1,1.26.43.9.9,0,0,1,.39.87c0,.38-.43.74-1.07,1.12l-.43.26-.45.32-.21.13a16.49,16.49,0,0,1,1.85.16"/><path class="cls-3" d="M88.07,134.91a1.74,1.74,0,0,1,1.28,2.6c-.5,1.31-1.28,1.73-2.37,1.44s-1.53-1-1.31-2.43a1.73,1.73,0,0,1,2.4-1.61m-.08.31c-.37-.1-.69.43-1,1.58s-.25,1.75,0,1.84.62-.44,1-1.57.33-1.75,0-1.85"/><path class="cls-3" d="M92.4,136.58a1.75,1.75,0,0,1,.74,2.83c-.77,1.17-1.63,1.42-2.65.89s-1.31-1.35-.8-2.66a1.74,1.74,0,0,1,2.71-1.06m-.15.29c-.34-.18-.77.27-1.28,1.33s-.61,1.67-.33,1.81.71-.29,1.27-1.32.69-1.65.34-1.82"/><path class="cls-3" d="M97,141.23l-.55-.4a2.11,2.11,0,0,0,.26-.22c.24-.27.2-.56-.13-.85a.72.72,0,0,0-.7-.2,2.73,2.73,0,0,0-.93.73,1.5,1.5,0,0,1,1.46,1.33,1.14,1.14,0,0,1-.35.94A1.4,1.4,0,0,1,95,143a1.94,1.94,0,0,1-1.14-.48,1.84,1.84,0,0,1-.31-2.78,2,2,0,0,1,1.39-.95,2.21,2.21,0,0,1,1.71.59c.79.68.94,1.28.5,1.72l-.14.12m-1.71-.55q-.43-.36-1,.39c-.44.56-.54.94-.29,1.14s.6,0,1.1-.56.46-.76.21-1"/><path class="cls-6" d="M80.3,56.13c.92-.16,1.5-.29,2.49-.51a10.28,10.28,0,0,1,.53.93,3.44,3.44,0,0,0-1.77.18,5.31,5.31,0,0,0,.2,1,1.43,1.43,0,0,0,1-.32c.06.39.16.76.23,1.1a2.34,2.34,0,0,0-1.07,0,4.29,4.29,0,0,0,.53,1.9,12.33,12.33,0,0,1-1.23.26,7.31,7.31,0,0,0-.28-2,11.18,11.18,0,0,0-.64-2.51s0-.05,0-.07"/><path class="cls-1" d="M81,60.91l0-.26a4.4,4.4,0,0,0-.17-1.35c0-.18-.07-.37-.11-.55l0-.21a10,10,0,0,0-.59-2.25l0-.08L80.07,56l.2-.07c.89-.15,1.47-.27,2.47-.5l.14,0,.07.11c.18.28.36.59.55.94l.21.41-.44-.13a3,3,0,0,0-1.51.14,5.82,5.82,0,0,0,.14.63,1.63,1.63,0,0,0,.77-.31l.26-.16,0,.3c0,.24.09.48.15.7l.09.4.06.29-.3-.06a2,2,0,0,0-.82,0,3.92,3.92,0,0,0,.49,1.64l.14.23-.26.07c-.35.09-.88.21-1.25.27Zm-.44-4.63a11.65,11.65,0,0,1,.55,2.19l0,.2c0,.19.07.37.11.55a6.32,6.32,0,0,1,.18,1.22l.72-.16a4.79,4.79,0,0,1-.42-1.76v-.17l.16,0a3,3,0,0,1,.86-.08l0-.11-.09-.44a1.36,1.36,0,0,1-.93.19l-.12,0,0-.12a5.1,5.1,0,0,1-.21-1v-.16l.15-.05A4.79,4.79,0,0,1,83,56.29c-.09-.16-.17-.31-.26-.45C81.85,56,81.31,56.15,80.57,56.28Z"/><path class="cls-6" d="M79.57,54.71c1-.09,2.33-.51,3.38-.59.42,0,1.15-.1,1.27.51-3.13.26-6.52.95-9.72,1.48a2.52,2.52,0,0,1,.1-.85c.21,0,.2.16.38.16.65-.22,1.48,0,2-.5,1,.09,2.41.06,3-1.27-.24-.36-.58.1-.68.48-.75-1.11,1.14-1.79,1.17-.57,0,.77-.5.73-.87,1.15"/><path class="cls-6" d="M80.26,62c-1,.08-2.35.5-3.42.58-.42,0-1.16.09-1.28-.51,3.17-.26,6.59-.94,9.82-1.46.08.17-.06.56-.1.85-.21,0-.19-.17-.39-.16-.65.21-1.48,0-2,.49-1-.09-2.44-.06-3,1.27.24.36.59-.1.69-.48.76,1.11-1.15,1.78-1.19.56,0-.76.51-.72.88-1.14"/><path class="cls-1" d="M79.59,57.45l-.94-1.05L77,56.75l-.5,1.06.35,2.52,1.12.78,1.43-.21.68-1.08Zm-.72,2.74-.76.16-.5-.38-.24-2,.27-.44.75-.16.43.42.31,1.79Z"/><path class="cls-1" d="M77.94,61.31l-1.25-.87-.38-2.66.58-1.21,1.83-.39,1.06,1.18.53,2.5-.78,1.22Zm-.88-1.1,1,.69,1.26-.18.59-.94-.48-2.23-.83-.93-1.42.3-.44.92Zm1,.35-.64-.48L77.17,58l.34-.56.94-.2.56.53.32,1.92-.32.71Zm-.27-.7.36.27.57-.12.19-.41-.28-1.67-.31-.31-.57.13-.18.3Z"/><path class="cls-6" d="M89,44.29,88.35,46l-5.65-.21s.6-1.91.84-1.91S90,41.16,90,41.16Z"/><path class="cls-1" d="M41.18,79.56l1.78.15a8.8,8.8,0,0,1-.09,1,7.6,7.6,0,0,1-.21.87l1,.52.43.21-.88,1.83c-.24-.1-.49-.22-.75-.35s-.5-.26-.71-.35a4.24,4.24,0,0,1-1,.86,5.41,5.41,0,0,1-1.74.6,3.19,3.19,0,0,1-2.48-.36,2.63,2.63,0,0,1-1.11-1.77,2.78,2.78,0,0,1,.18-1.6,3.42,3.42,0,0,1,1.26-1.47,5,5,0,0,1-.79-1,3,3,0,0,1-.33-.91A2.32,2.32,0,0,1,36,76a2.68,2.68,0,0,1,1.82-1,2.69,2.69,0,0,1,2.06.27,2,2,0,0,1,.89,1.36,2.39,2.39,0,0,1,0,1,2.57,2.57,0,0,1-.33.8,12.75,12.75,0,0,1-.81,1A15.39,15.39,0,0,0,41,80.45,6.13,6.13,0,0,0,41.18,79.56ZM38,80.79a2.37,2.37,0,0,0-.48.75A1.21,1.21,0,0,0,38,82.92a1.21,1.21,0,0,0,.95.21,2.33,2.33,0,0,0,1.21-.79A25.73,25.73,0,0,1,38,80.79Zm.37-2.43a2.19,2.19,0,0,0,.54-.72A1,1,0,0,0,39,77a.74.74,0,0,0-.28-.48.68.68,0,0,0-.57-.11.71.71,0,0,0-.5.33.79.79,0,0,0-.11.58A2.23,2.23,0,0,0,38.37,78.36Z"/></g></svg>